<?xml version="1.0" encoding="utf-8" standalone="no"?>
<!DOCTYPE svg PUBLIC "-//W3C//DTD SVG 1.1//EN"
  "http://www.w3.org/Graphics/SVG/1.1/DTD/svg11.dtd">
<svg xmlns:xlink="http://www.w3.org/1999/xlink" width="808.936787pt" height="325.19952pt" viewBox="0 0 808.936787 325.19952" xmlns="http://www.w3.org/2000/svg" version="1.1">
 <metadata>
  <rdf:RDF xmlns:dc="http://purl.org/dc/elements/1.1/" xmlns:cc="http://creativecommons.org/ns#" xmlns:rdf="http://www.w3.org/1999/02/22-rdf-syntax-ns#">
   <cc:Work>
    <dc:type rdf:resource="http://purl.org/dc/dcmitype/StillImage"/>
    <dc:date>2026-05-28T20:19:52.777037</dc:date>
    <dc:format>image/svg+xml</dc:format>
    <dc:creator>
     <cc:Agent>
      <dc:title>Matplotlib v3.10.8, https://matplotlib.org/</dc:title>
     </cc:Agent>
    </dc:creator>
   </cc:Work>
  </rdf:RDF>
 </metadata>
 <defs>
  <style type="text/css">*{stroke-linejoin: round; stroke-linecap: butt}</style>
 </defs>
 <g id="figure_1">
  <g id="patch_1">
   <path d="M 0 325.19952 
L 808.936787 325.19952 
L 808.936787 0 
L 0 0 
z
" style="fill: #ffffff"/>
  </g>
  <g id="axes_1">
   <g id="patch_2">
    <path d="M 261.806071 173.362109 
C 261.806071 158.354845 258.849967 143.493507 253.106936 129.628603 
C 247.363904 115.763698 238.945633 103.164864 228.333894 92.553126 
C 217.722156 81.941387 205.123322 73.523116 191.258417 67.780084 
C 177.393513 62.037053 162.532175 59.080949 147.524911 59.080949 
C 132.517646 59.080949 117.656308 62.037053 103.791404 67.780084 
C 89.926499 73.523116 77.327665 81.941387 66.715927 92.553126 
C 56.104188 103.164864 47.685917 115.763698 41.942885 129.628603 
C 36.199854 143.493507 33.24375 158.354845 33.24375 173.362109 
C 33.24375 188.369374 36.199854 203.230712 41.942885 217.095616 
C 47.685917 230.960521 56.104188 243.559355 66.715927 254.171093 
C 77.327665 264.782832 89.926499 273.201103 103.791404 278.944135 
C 117.656308 284.687166 132.517646 287.64327 147.524911 287.64327 
C 162.532175 287.64327 177.393513 284.687166 191.258417 278.944135 
C 205.123322 273.201103 217.722156 264.782832 228.333894 254.171093 
C 238.945633 243.559355 247.363904 230.960521 253.106936 217.095616 
C 258.849967 203.230712 261.806071 188.369374 261.806071 173.362109 
M 147.524911 173.362109 
C 147.524911 173.362109 147.524911 173.362109 147.524911 173.362109 
C 147.524911 173.362109 147.524911 173.362109 147.524911 173.362109 
C 147.524911 173.362109 147.524911 173.362109 147.524911 173.362109 
C 147.524911 173.362109 147.524911 173.362109 147.524911 173.362109 
C 147.524911 173.362109 147.524911 173.362109 147.524911 173.362109 
C 147.524911 173.362109 147.524911 173.362109 147.524911 173.362109 
C 147.524911 173.362109 147.524911 173.362109 147.524911 173.362109 
C 147.524911 173.362109 147.524911 173.362109 147.524911 173.362109 
C 147.524911 173.362109 147.524911 173.362109 147.524911 173.362109 
C 147.524911 173.362109 147.524911 173.362109 147.524911 173.362109 
C 147.524911 173.362109 147.524911 173.362109 147.524911 173.362109 
C 147.524911 173.362109 147.524911 173.362109 147.524911 173.362109 
C 147.524911 173.362109 147.524911 173.362109 147.524911 173.362109 
C 147.524911 173.362109 147.524911 173.362109 147.524911 173.362109 
C 147.524911 173.362109 147.524911 173.362109 147.524911 173.362109 
C 147.524911 173.362109 147.524911 173.362109 147.524911 173.362109 
z
" style="fill: #ffffff"/>
   </g>
   <g id="PathCollection_1">
    <defs>
     <path id="m19d6902fc8" d="M 0 3.708099 
C 0.983399 3.708099 1.926654 3.317391 2.622022 2.622022 
C 3.317391 1.926654 3.708099 0.983399 3.708099 0 
C 3.708099 -0.983399 3.317391 -1.926654 2.622022 -2.622022 
C 1.926654 -3.317391 0.983399 -3.708099 0 -3.708099 
C -0.983399 -3.708099 -1.926654 -3.317391 -2.622022 -2.622022 
C -3.317391 -1.926654 -3.708099 -0.983399 -3.708099 0 
C -3.708099 0.983399 -3.317391 1.926654 -2.622022 2.622022 
C -1.926654 3.317391 -0.983399 3.708099 0 3.708099 
z
" style="stroke: #7c3aed; stroke-opacity: 0.85"/>
    </defs>
    <g clip-path="url(#p939c3c033c)">
     <use xlink:href="#m19d6902fc8" x="223.18138" y="189.443388" style="fill: #7c3aed; fill-opacity: 0.85; stroke: #7c3aed; stroke-opacity: 0.85"/>
     <use xlink:href="#m19d6902fc8" x="224.316424" y="198.313184" style="fill: #7c3aed; fill-opacity: 0.85; stroke: #7c3aed; stroke-opacity: 0.85"/>
     <use xlink:href="#m19d6902fc8" x="219.38101" y="205.354506" style="fill: #7c3aed; fill-opacity: 0.85; stroke: #7c3aed; stroke-opacity: 0.85"/>
     <use xlink:href="#m19d6902fc8" x="212.427998" y="212.359819" style="fill: #7c3aed; fill-opacity: 0.85; stroke: #7c3aed; stroke-opacity: 0.85"/>
     <use xlink:href="#m19d6902fc8" x="209.29462" y="219.908924" style="fill: #7c3aed; fill-opacity: 0.85; stroke: #7c3aed; stroke-opacity: 0.85"/>
     <use xlink:href="#m19d6902fc8" x="209.509374" y="231.163557" style="fill: #7c3aed; fill-opacity: 0.85; stroke: #7c3aed; stroke-opacity: 0.85"/>
     <use xlink:href="#m19d6902fc8" x="206.584873" y="246.295089" style="fill: #7c3aed; fill-opacity: 0.85; stroke: #7c3aed; stroke-opacity: 0.85"/>
     <use xlink:href="#m19d6902fc8" x="199.975912" y="257.301258" style="fill: #7c3aed; fill-opacity: 0.85; stroke: #7c3aed; stroke-opacity: 0.85"/>
     <use xlink:href="#m19d6902fc8" x="190.548712" y="261.573975" style="fill: #7c3aed; fill-opacity: 0.85; stroke: #7c3aed; stroke-opacity: 0.85"/>
     <use xlink:href="#m19d6902fc8" x="176.827318" y="263.545645" style="fill: #7c3aed; fill-opacity: 0.85; stroke: #7c3aed; stroke-opacity: 0.85"/>
     <use xlink:href="#m19d6902fc8" x="162.352612" y="266.980532" style="fill: #7c3aed; fill-opacity: 0.85; stroke: #7c3aed; stroke-opacity: 0.85"/>
     <use xlink:href="#m19d6902fc8" x="142.250648" y="274.001036" style="fill: #7c3aed; fill-opacity: 0.85; stroke: #7c3aed; stroke-opacity: 0.85"/>
    </g>
   </g>
   <g id="matplotlib.axis_1">
    <g id="xtick_1">
     <g id="line2d_1">
      <path d="M 147.524911 173.362109 
L 261.806071 173.362109 
" clip-path="url(#p939c3c033c)" style="fill: none; stroke: #b0b0b0; stroke-width: 0.8; stroke-linecap: square"/>
     </g>
     <g id="text_1">
      <!-- 0° -->
      <g transform="translate(270.124821 176.121484) scale(0.1 -0.1)">
       <defs>
        <path id="DejaVuSans-30" d="M 2034 4250 
Q 1547 4250 1301 3770 
Q 1056 3291 1056 2328 
Q 1056 1369 1301 889 
Q 1547 409 2034 409 
Q 2525 409 2770 889 
Q 3016 1369 3016 2328 
Q 3016 3291 2770 3770 
Q 2525 4250 2034 4250 
z
M 2034 4750 
Q 2819 4750 3233 4129 
Q 3647 3509 3647 2328 
Q 3647 1150 3233 529 
Q 2819 -91 2034 -91 
Q 1250 -91 836 529 
Q 422 1150 422 2328 
Q 422 3509 836 4129 
Q 1250 4750 2034 4750 
z
" transform="scale(0.015625)"/>
        <path id="DejaVuSans-b0" d="M 1600 4347 
Q 1350 4347 1178 4173 
Q 1006 4000 1006 3750 
Q 1006 3503 1178 3333 
Q 1350 3163 1600 3163 
Q 1850 3163 2022 3333 
Q 2194 3503 2194 3750 
Q 2194 3997 2020 4172 
Q 1847 4347 1600 4347 
z
M 1600 4750 
Q 1800 4750 1984 4673 
Q 2169 4597 2303 4453 
Q 2447 4313 2519 4134 
Q 2591 3956 2591 3750 
Q 2591 3338 2302 3052 
Q 2013 2766 1594 2766 
Q 1172 2766 890 3047 
Q 609 3328 609 3750 
Q 609 4169 896 4459 
Q 1184 4750 1600 4750 
z
" transform="scale(0.015625)"/>
       </defs>
       <use xlink:href="#DejaVuSans-30"/>
       <use xlink:href="#DejaVuSans-b0" transform="translate(63.623047 0)"/>
      </g>
     </g>
    </g>
    <g id="xtick_2">
     <g id="line2d_2">
      <path d="M 147.524911 173.362109 
L 228.333894 254.171093 
" clip-path="url(#p939c3c033c)" style="fill: none; stroke: #b0b0b0; stroke-width: 0.8; stroke-linecap: square"/>
     </g>
     <g id="text_2">
      <!-- 45° -->
      <g transform="translate(229.370889 266.829963) scale(0.1 -0.1)">
       <defs>
        <path id="DejaVuSans-34" d="M 2419 4116 
L 825 1625 
L 2419 1625 
L 2419 4116 
z
M 2253 4666 
L 3047 4666 
L 3047 1625 
L 3713 1625 
L 3713 1100 
L 3047 1100 
L 3047 0 
L 2419 0 
L 2419 1100 
L 313 1100 
L 313 1709 
L 2253 4666 
z
" transform="scale(0.015625)"/>
        <path id="DejaVuSans-35" d="M 691 4666 
L 3169 4666 
L 3169 4134 
L 1269 4134 
L 1269 2991 
Q 1406 3038 1543 3061 
Q 1681 3084 1819 3084 
Q 2600 3084 3056 2656 
Q 3513 2228 3513 1497 
Q 3513 744 3044 326 
Q 2575 -91 1722 -91 
Q 1428 -91 1123 -41 
Q 819 9 494 109 
L 494 744 
Q 775 591 1075 516 
Q 1375 441 1709 441 
Q 2250 441 2565 725 
Q 2881 1009 2881 1497 
Q 2881 1984 2565 2268 
Q 2250 2553 1709 2553 
Q 1456 2553 1204 2497 
Q 953 2441 691 2322 
L 691 4666 
z
" transform="scale(0.015625)"/>
       </defs>
       <use xlink:href="#DejaVuSans-34"/>
       <use xlink:href="#DejaVuSans-35" transform="translate(63.623047 0)"/>
       <use xlink:href="#DejaVuSans-b0" transform="translate(127.246094 0)"/>
      </g>
     </g>
    </g>
    <g id="xtick_3">
     <g id="line2d_3">
      <path d="M 147.524911 173.362109 
L 147.524911 287.64327 
" clip-path="url(#p939c3c033c)" style="fill: none; stroke: #b0b0b0; stroke-width: 0.8; stroke-linecap: square"/>
     </g>
     <g id="text_3">
      <!-- 90° -->
      <g transform="translate(138.662411 304.402645) scale(0.1 -0.1)">
       <defs>
        <path id="DejaVuSans-39" d="M 703 97 
L 703 672 
Q 941 559 1184 500 
Q 1428 441 1663 441 
Q 2288 441 2617 861 
Q 2947 1281 2994 2138 
Q 2813 1869 2534 1725 
Q 2256 1581 1919 1581 
Q 1219 1581 811 2004 
Q 403 2428 403 3163 
Q 403 3881 828 4315 
Q 1253 4750 1959 4750 
Q 2769 4750 3195 4129 
Q 3622 3509 3622 2328 
Q 3622 1225 3098 567 
Q 2575 -91 1691 -91 
Q 1453 -91 1209 -44 
Q 966 3 703 97 
z
M 1959 2075 
Q 2384 2075 2632 2365 
Q 2881 2656 2881 3163 
Q 2881 3666 2632 3958 
Q 2384 4250 1959 4250 
Q 1534 4250 1286 3958 
Q 1038 3666 1038 3163 
Q 1038 2656 1286 2365 
Q 1534 2075 1959 2075 
z
" transform="scale(0.015625)"/>
       </defs>
       <use xlink:href="#DejaVuSans-39"/>
       <use xlink:href="#DejaVuSans-30" transform="translate(63.623047 0)"/>
       <use xlink:href="#DejaVuSans-b0" transform="translate(127.246094 0)"/>
      </g>
     </g>
    </g>
    <g id="xtick_4">
     <g id="line2d_4">
      <path d="M 147.524911 173.362109 
L 66.715927 254.171093 
" clip-path="url(#p939c3c033c)" style="fill: none; stroke: #b0b0b0; stroke-width: 0.8; stroke-linecap: square"/>
     </g>
     <g id="text_4">
      <!-- 135° -->
      <g transform="translate(44.772682 266.829963) scale(0.1 -0.1)">
       <defs>
        <path id="DejaVuSans-31" d="M 794 531 
L 1825 531 
L 1825 4091 
L 703 3866 
L 703 4441 
L 1819 4666 
L 2450 4666 
L 2450 531 
L 3481 531 
L 3481 0 
L 794 0 
L 794 531 
z
" transform="scale(0.015625)"/>
        <path id="DejaVuSans-33" d="M 2597 2516 
Q 3050 2419 3304 2112 
Q 3559 1806 3559 1356 
Q 3559 666 3084 287 
Q 2609 -91 1734 -91 
Q 1441 -91 1130 -33 
Q 819 25 488 141 
L 488 750 
Q 750 597 1062 519 
Q 1375 441 1716 441 
Q 2309 441 2620 675 
Q 2931 909 2931 1356 
Q 2931 1769 2642 2001 
Q 2353 2234 1838 2234 
L 1294 2234 
L 1294 2753 
L 1863 2753 
Q 2328 2753 2575 2939 
Q 2822 3125 2822 3475 
Q 2822 3834 2567 4026 
Q 2313 4219 1838 4219 
Q 1578 4219 1281 4162 
Q 984 4106 628 3988 
L 628 4550 
Q 988 4650 1302 4700 
Q 1616 4750 1894 4750 
Q 2613 4750 3031 4423 
Q 3450 4097 3450 3541 
Q 3450 3153 3228 2886 
Q 3006 2619 2597 2516 
z
" transform="scale(0.015625)"/>
       </defs>
       <use xlink:href="#DejaVuSans-31"/>
       <use xlink:href="#DejaVuSans-33" transform="translate(63.623047 0)"/>
       <use xlink:href="#DejaVuSans-35" transform="translate(127.246094 0)"/>
       <use xlink:href="#DejaVuSans-b0" transform="translate(190.869141 0)"/>
      </g>
     </g>
    </g>
    <g id="xtick_5">
     <g id="line2d_5">
      <path d="M 147.524911 173.362109 
L 33.24375 173.362109 
" clip-path="url(#p939c3c033c)" style="fill: none; stroke: #b0b0b0; stroke-width: 0.8; stroke-linecap: square"/>
     </g>
     <g id="text_5">
      <!-- 180° -->
      <g transform="translate(7.2 176.121484) scale(0.1 -0.1)">
       <defs>
        <path id="DejaVuSans-38" d="M 2034 2216 
Q 1584 2216 1326 1975 
Q 1069 1734 1069 1313 
Q 1069 891 1326 650 
Q 1584 409 2034 409 
Q 2484 409 2743 651 
Q 3003 894 3003 1313 
Q 3003 1734 2745 1975 
Q 2488 2216 2034 2216 
z
M 1403 2484 
Q 997 2584 770 2862 
Q 544 3141 544 3541 
Q 544 4100 942 4425 
Q 1341 4750 2034 4750 
Q 2731 4750 3128 4425 
Q 3525 4100 3525 3541 
Q 3525 3141 3298 2862 
Q 3072 2584 2669 2484 
Q 3125 2378 3379 2068 
Q 3634 1759 3634 1313 
Q 3634 634 3220 271 
Q 2806 -91 2034 -91 
Q 1263 -91 848 271 
Q 434 634 434 1313 
Q 434 1759 690 2068 
Q 947 2378 1403 2484 
z
M 1172 3481 
Q 1172 3119 1398 2916 
Q 1625 2713 2034 2713 
Q 2441 2713 2670 2916 
Q 2900 3119 2900 3481 
Q 2900 3844 2670 4047 
Q 2441 4250 2034 4250 
Q 1625 4250 1398 4047 
Q 1172 3844 1172 3481 
z
" transform="scale(0.015625)"/>
       </defs>
       <use xlink:href="#DejaVuSans-31"/>
       <use xlink:href="#DejaVuSans-38" transform="translate(63.623047 0)"/>
       <use xlink:href="#DejaVuSans-30" transform="translate(127.246094 0)"/>
       <use xlink:href="#DejaVuSans-b0" transform="translate(190.869141 0)"/>
      </g>
     </g>
    </g>
    <g id="xtick_6">
     <g id="line2d_6">
      <path d="M 147.524911 173.362109 
L 66.715927 92.553126 
" clip-path="url(#p939c3c033c)" style="fill: none; stroke: #b0b0b0; stroke-width: 0.8; stroke-linecap: square"/>
     </g>
     <g id="text_6">
      <!-- 225° -->
      <g transform="translate(44.772682 85.413006) scale(0.1 -0.1)">
       <defs>
        <path id="DejaVuSans-32" d="M 1228 531 
L 3431 531 
L 3431 0 
L 469 0 
L 469 531 
Q 828 903 1448 1529 
Q 2069 2156 2228 2338 
Q 2531 2678 2651 2914 
Q 2772 3150 2772 3378 
Q 2772 3750 2511 3984 
Q 2250 4219 1831 4219 
Q 1534 4219 1204 4116 
Q 875 4013 500 3803 
L 500 4441 
Q 881 4594 1212 4672 
Q 1544 4750 1819 4750 
Q 2544 4750 2975 4387 
Q 3406 4025 3406 3419 
Q 3406 3131 3298 2873 
Q 3191 2616 2906 2266 
Q 2828 2175 2409 1742 
Q 1991 1309 1228 531 
z
" transform="scale(0.015625)"/>
       </defs>
       <use xlink:href="#DejaVuSans-32"/>
       <use xlink:href="#DejaVuSans-32" transform="translate(63.623047 0)"/>
       <use xlink:href="#DejaVuSans-35" transform="translate(127.246094 0)"/>
       <use xlink:href="#DejaVuSans-b0" transform="translate(190.869141 0)"/>
      </g>
     </g>
    </g>
    <g id="xtick_7">
     <g id="line2d_7">
      <path d="M 147.524911 173.362109 
L 147.524911 59.080949 
" clip-path="url(#p939c3c033c)" style="fill: none; stroke: #b0b0b0; stroke-width: 0.8; stroke-linecap: square"/>
     </g>
     <g id="text_7">
      <!-- 270° -->
      <g transform="translate(135.481161 47.840324) scale(0.1 -0.1)">
       <defs>
        <path id="DejaVuSans-37" d="M 525 4666 
L 3525 4666 
L 3525 4397 
L 1831 0 
L 1172 0 
L 2766 4134 
L 525 4134 
L 525 4666 
z
" transform="scale(0.015625)"/>
       </defs>
       <use xlink:href="#DejaVuSans-32"/>
       <use xlink:href="#DejaVuSans-37" transform="translate(63.623047 0)"/>
       <use xlink:href="#DejaVuSans-30" transform="translate(127.246094 0)"/>
       <use xlink:href="#DejaVuSans-b0" transform="translate(190.869141 0)"/>
      </g>
     </g>
    </g>
    <g id="xtick_8">
     <g id="line2d_8">
      <path d="M 147.524911 173.362109 
L 228.333894 92.553126 
" clip-path="url(#p939c3c033c)" style="fill: none; stroke: #b0b0b0; stroke-width: 0.8; stroke-linecap: square"/>
     </g>
     <g id="text_8">
      <!-- 315° -->
      <g transform="translate(226.189639 85.413006) scale(0.1 -0.1)">
       <use xlink:href="#DejaVuSans-33"/>
       <use xlink:href="#DejaVuSans-31" transform="translate(63.623047 0)"/>
       <use xlink:href="#DejaVuSans-35" transform="translate(127.246094 0)"/>
       <use xlink:href="#DejaVuSans-b0" transform="translate(190.869141 0)"/>
      </g>
     </g>
    </g>
   </g>
   <g id="matplotlib.axis_2">
    <g id="ytick_1">
     <g id="line2d_9">
      <path d="M 163.923767 173.362109 
C 163.923767 175.515587 163.499578 177.648126 162.675478 179.63768 
C 161.851378 181.627234 160.643392 183.435113 159.120653 184.957852 
C 157.597914 186.480591 155.790035 187.688576 153.800481 188.512677 
C 151.810927 189.336777 149.678389 189.760965 147.524911 189.760965 
C 145.371433 189.760965 143.238894 189.336777 141.24934 188.512677 
C 139.259786 187.688576 137.451907 186.480591 135.929168 184.957852 
C 134.406429 183.435113 133.198444 181.627234 132.374343 179.63768 
C 131.550243 177.648126 131.126055 175.515587 131.126055 173.362109 
C 131.126055 171.208631 131.550243 169.076093 132.374343 167.086539 
C 133.198444 165.096985 134.406429 163.289106 135.929168 161.766367 
C 137.451907 160.243628 139.259786 159.035642 141.24934 158.211542 
C 143.238894 157.387442 145.371433 156.963253 147.524911 156.963253 
C 149.678389 156.963253 151.810927 157.387442 153.800481 158.211542 
C 155.790035 159.035642 157.597914 160.243628 159.120653 161.766367 
C 160.643392 163.289106 161.851378 165.096985 162.675478 167.086539 
C 163.499578 169.076093 163.923767 171.208631 163.923767 173.362109 
" clip-path="url(#p939c3c033c)" style="fill: none; stroke: #b0b0b0; stroke-width: 0.8; stroke-linecap: square"/>
     </g>
     <g id="text_9">
      <!-- 10 -->
      <g transform="translate(162.675478 177.557992) scale(0.1 -0.1)">
       <use xlink:href="#DejaVuSans-31"/>
       <use xlink:href="#DejaVuSans-30" transform="translate(63.623047 0)"/>
      </g>
     </g>
    </g>
    <g id="ytick_2">
     <g id="line2d_10">
      <path d="M 180.322623 173.362109 
C 180.322623 177.669065 179.474246 181.934142 177.826045 185.91325 
C 176.177845 189.892359 173.761873 193.508116 170.716395 196.553594 
C 167.670917 199.599072 164.05516 202.015043 160.076052 203.663244 
C 156.096943 205.311445 151.831867 206.159821 147.524911 206.159821 
C 143.217955 206.159821 138.952878 205.311445 134.97377 203.663244 
C 130.994661 202.015043 127.378904 199.599072 124.333426 196.553594 
C 121.287948 193.508116 118.871977 189.892359 117.223776 185.91325 
C 115.575575 181.934142 114.727199 177.669065 114.727199 173.362109 
C 114.727199 169.055153 115.575575 164.790077 117.223776 160.810968 
C 118.871977 156.83186 121.287948 153.216103 124.333426 150.170625 
C 127.378904 147.125147 130.994661 144.709175 134.97377 143.060975 
C 138.952878 141.412774 143.217955 140.564397 147.524911 140.564397 
C 151.831867 140.564397 156.096943 141.412774 160.076052 143.060975 
C 164.05516 144.709175 167.670917 147.125147 170.716395 150.170625 
C 173.761873 153.216103 176.177845 156.83186 177.826045 160.810968 
C 179.474246 164.790077 180.322623 169.055153 180.322623 173.362109 
" clip-path="url(#p939c3c033c)" style="fill: none; stroke: #b0b0b0; stroke-width: 0.8; stroke-linecap: square"/>
     </g>
     <g id="text_10">
      <!-- 20 -->
      <g transform="translate(177.826045 183.833563) scale(0.1 -0.1)">
       <use xlink:href="#DejaVuSans-32"/>
       <use xlink:href="#DejaVuSans-30" transform="translate(63.623047 0)"/>
      </g>
     </g>
    </g>
    <g id="ytick_3">
     <g id="line2d_11">
      <path d="M 196.721479 173.362109 
C 196.721479 179.822543 195.448914 186.220158 192.976613 192.188821 
C 190.504312 198.157484 186.880354 203.581119 182.312137 208.149336 
C 177.743921 212.717553 172.320285 216.34151 166.351622 218.813812 
C 160.382959 221.286113 153.985345 222.558677 147.524911 222.558677 
C 141.064477 222.558677 134.666862 221.286113 128.698199 218.813812 
C 122.729536 216.34151 117.305901 212.717553 112.737684 208.149336 
C 108.169467 203.581119 104.54551 198.157484 102.073208 192.188821 
C 99.600907 186.220158 98.328343 179.822543 98.328343 173.362109 
C 98.328343 166.901675 99.600907 160.504061 102.073208 154.535398 
C 104.54551 148.566735 108.169467 143.143099 112.737684 138.574883 
C 117.305901 134.006666 122.729536 130.382708 128.698199 127.910407 
C 134.666862 125.438106 141.064477 124.165541 147.524911 124.165541 
C 153.985345 124.165541 160.382959 125.438106 166.351622 127.910407 
C 172.320285 130.382708 177.743921 134.006666 182.312137 138.574883 
C 186.880354 143.143099 190.504312 148.566735 192.976613 154.535398 
C 195.448914 160.504061 196.721479 166.901675 196.721479 173.362109 
" clip-path="url(#p939c3c033c)" style="fill: none; stroke: #b0b0b0; stroke-width: 0.8; stroke-linecap: square"/>
     </g>
     <g id="text_11">
      <!-- 30 -->
      <g transform="translate(192.976613 190.109133) scale(0.1 -0.1)">
       <use xlink:href="#DejaVuSans-33"/>
       <use xlink:href="#DejaVuSans-30" transform="translate(63.623047 0)"/>
      </g>
     </g>
    </g>
    <g id="ytick_4">
     <g id="line2d_12">
      <path d="M 213.120335 173.362109 
C 213.120335 181.976022 211.423582 190.506174 208.12718 198.464391 
C 204.830779 206.422608 199.998835 213.654123 193.90788 219.745078 
C 187.816924 225.836034 180.58541 230.667978 172.627193 233.964379 
C 164.668975 237.26078 156.138823 238.957533 147.524911 238.957533 
C 138.910998 238.957533 130.380846 237.26078 122.422629 233.964379 
C 114.464412 230.667978 107.232897 225.836034 101.141942 219.745078 
C 95.050986 213.654123 90.219042 206.422608 86.922641 198.464391 
C 83.62624 190.506174 81.929487 181.976022 81.929487 173.362109 
C 81.929487 164.748197 83.62624 156.218045 86.922641 148.259827 
C 90.219042 140.30161 95.050986 133.070096 101.141942 126.97914 
C 107.232897 120.888185 114.464412 116.056241 122.422629 112.75984 
C 130.380846 109.463438 138.910998 107.766685 147.524911 107.766685 
C 156.138823 107.766685 164.668975 109.463438 172.627193 112.75984 
C 180.58541 116.056241 187.816924 120.888185 193.90788 126.97914 
C 199.998835 133.070096 204.830779 140.30161 208.12718 148.259827 
C 211.423582 156.218045 213.120335 164.748197 213.120335 173.362109 
" clip-path="url(#p939c3c033c)" style="fill: none; stroke: #b0b0b0; stroke-width: 0.8; stroke-linecap: square"/>
     </g>
     <g id="text_12">
      <!-- 40 -->
      <g transform="translate(208.12718 196.384704) scale(0.1 -0.1)">
       <use xlink:href="#DejaVuSans-34"/>
       <use xlink:href="#DejaVuSans-30" transform="translate(63.623047 0)"/>
      </g>
     </g>
    </g>
    <g id="ytick_5">
     <g id="line2d_13">
      <path d="M 229.519191 173.362109 
C 229.519191 184.1295 227.398249 194.79219 223.277748 204.739962 
C 219.157246 214.687733 213.117317 223.727126 205.503622 231.340821 
C 197.889927 238.954515 188.850535 244.994445 178.902763 249.114946 
C 168.954992 253.235448 158.292301 255.356389 147.524911 255.356389 
C 136.75752 255.356389 126.09483 253.235448 116.147058 249.114946 
C 106.199287 244.994445 97.159894 238.954515 89.546199 231.340821 
C 81.932505 223.727126 75.892575 214.687733 71.772074 204.739962 
C 67.651572 194.79219 65.530631 184.1295 65.530631 173.362109 
C 65.530631 162.594719 67.651572 151.932028 71.772074 141.984257 
C 75.892575 132.036485 81.932505 122.997093 89.546199 115.383398 
C 97.159894 107.769703 106.199287 101.729774 116.147058 97.609272 
C 126.09483 93.488771 136.75752 91.367829 147.524911 91.367829 
C 158.292301 91.367829 168.954992 93.488771 178.902763 97.609272 
C 188.850535 101.729774 197.889927 107.769703 205.503622 115.383398 
C 213.117317 122.997093 219.157246 132.036485 223.277748 141.984257 
C 227.398249 151.932028 229.519191 162.594719 229.519191 173.362109 
" clip-path="url(#p939c3c033c)" style="fill: none; stroke: #b0b0b0; stroke-width: 0.8; stroke-linecap: square"/>
     </g>
     <g id="text_13">
      <!-- 50 -->
      <g transform="translate(223.277748 202.660274) scale(0.1 -0.1)">
       <use xlink:href="#DejaVuSans-35"/>
       <use xlink:href="#DejaVuSans-30" transform="translate(63.623047 0)"/>
      </g>
     </g>
    </g>
    <g id="ytick_6">
     <g id="line2d_14">
      <path d="M 245.918047 173.362109 
C 245.918047 186.282978 243.372917 199.078207 238.428315 211.015532 
C 233.483713 222.952858 226.235798 233.800129 217.099364 242.936563 
C 207.962931 252.072997 197.115659 259.320912 185.178334 264.265514 
C 173.241008 269.210116 160.445779 271.755245 147.524911 271.755245 
C 134.604042 271.755245 121.808813 269.210116 109.871488 264.265514 
C 97.934162 259.320912 87.086891 252.072997 77.950457 242.936563 
C 68.814023 233.800129 61.566108 222.952858 56.621506 211.015532 
C 51.676904 199.078207 49.131775 186.282978 49.131775 173.362109 
C 49.131775 160.441241 51.676904 147.646012 56.621506 135.708686 
C 61.566108 123.771361 68.814023 112.924089 77.950457 103.787656 
C 87.086891 94.651222 97.934162 87.403307 109.871488 82.458705 
C 121.808813 77.514103 134.604042 74.968973 147.524911 74.968973 
C 160.445779 74.968973 173.241008 77.514103 185.178334 82.458705 
C 197.115659 87.403307 207.962931 94.651222 217.099364 103.787656 
C 226.235798 112.924089 233.483713 123.771361 238.428315 135.708686 
C 243.372917 147.646012 245.918047 160.441241 245.918047 173.362109 
" clip-path="url(#p939c3c033c)" style="fill: none; stroke: #b0b0b0; stroke-width: 0.8; stroke-linecap: square"/>
     </g>
     <g id="text_14">
      <!-- 60 -->
      <g transform="translate(238.428315 208.935845) scale(0.1 -0.1)">
       <defs>
        <path id="DejaVuSans-36" d="M 2113 2584 
Q 1688 2584 1439 2293 
Q 1191 2003 1191 1497 
Q 1191 994 1439 701 
Q 1688 409 2113 409 
Q 2538 409 2786 701 
Q 3034 994 3034 1497 
Q 3034 2003 2786 2293 
Q 2538 2584 2113 2584 
z
M 3366 4563 
L 3366 3988 
Q 3128 4100 2886 4159 
Q 2644 4219 2406 4219 
Q 1781 4219 1451 3797 
Q 1122 3375 1075 2522 
Q 1259 2794 1537 2939 
Q 1816 3084 2150 3084 
Q 2853 3084 3261 2657 
Q 3669 2231 3669 1497 
Q 3669 778 3244 343 
Q 2819 -91 2113 -91 
Q 1303 -91 875 529 
Q 447 1150 447 2328 
Q 447 3434 972 4092 
Q 1497 4750 2381 4750 
Q 2619 4750 2861 4703 
Q 3103 4656 3366 4563 
z
" transform="scale(0.015625)"/>
       </defs>
       <use xlink:href="#DejaVuSans-36"/>
       <use xlink:href="#DejaVuSans-30" transform="translate(63.623047 0)"/>
      </g>
     </g>
    </g>
   </g>
   <g id="line2d_15">
    <path d="M 147.524911 173.362109 
L 220.525201 254.089609 
" clip-path="url(#p939c3c033c)" style="fill: none; stroke: #dc2626; stroke-width: 2.5; stroke-linecap: square"/>
   </g>
   <g id="patch_3">
    <path d="M 261.806071 173.362109 
C 261.806071 158.354845 258.849967 143.493507 253.106936 129.628603 
C 247.363904 115.763698 238.945633 103.164864 228.333894 92.553126 
C 217.722156 81.941387 205.123322 73.523116 191.258417 67.780084 
C 177.393513 62.037053 162.532175 59.080949 147.524911 59.080949 
C 132.517646 59.080949 117.656308 62.037053 103.791404 67.780084 
C 89.926499 73.523116 77.327665 81.941387 66.715927 92.553126 
C 56.104188 103.164864 47.685917 115.763698 41.942885 129.628603 
C 36.199854 143.493507 33.24375 158.354845 33.24375 173.362109 
C 33.24375 188.369374 36.199854 203.230712 41.942885 217.095616 
C 47.685917 230.960521 56.104188 243.559355 66.715927 254.171093 
C 77.327665 264.782832 89.926499 273.201103 103.791404 278.944135 
C 117.656308 284.687166 132.517646 287.64327 147.524911 287.64327 
C 162.532175 287.64327 177.393513 284.687166 191.258417 278.944135 
C 205.123322 273.201103 217.722156 264.782832 228.333894 254.171093 
C 238.945633 243.559355 247.363904 230.960521 253.106936 217.095616 
C 258.849967 203.230712 261.806071 188.369374 261.806071 173.362109 
" style="fill: none; stroke: #000000; stroke-width: 0.8; stroke-linejoin: miter; stroke-linecap: square"/>
   </g>
   <g id="text_15">
    <g id="patch_4">
     <path d="M 37.814996 278.672265 
L 144.01984 278.672265 
Q 146.99484 278.672265 146.99484 275.697265 
L 146.99484 257.952718 
Q 146.99484 254.977718 144.01984 254.977718 
L 37.814996 254.977718 
Q 34.839996 254.977718 34.839996 257.952718 
L 34.839996 275.697265 
Q 34.839996 278.672265 37.814996 278.672265 
z
" style="fill: #ffffff; stroke: #cbd5e1; stroke-linejoin: miter"/>
    </g>
    <!-- Order S=0.673 -->
    <g transform="translate(37.814996 264.41139) scale(0.085 -0.085)">
     <defs>
      <path id="DejaVuSans-4f" d="M 2522 4238 
Q 1834 4238 1429 3725 
Q 1025 3213 1025 2328 
Q 1025 1447 1429 934 
Q 1834 422 2522 422 
Q 3209 422 3611 934 
Q 4013 1447 4013 2328 
Q 4013 3213 3611 3725 
Q 3209 4238 2522 4238 
z
M 2522 4750 
Q 3503 4750 4090 4092 
Q 4678 3434 4678 2328 
Q 4678 1225 4090 567 
Q 3503 -91 2522 -91 
Q 1538 -91 948 565 
Q 359 1222 359 2328 
Q 359 3434 948 4092 
Q 1538 4750 2522 4750 
z
" transform="scale(0.015625)"/>
      <path id="DejaVuSans-72" d="M 2631 2963 
Q 2534 3019 2420 3045 
Q 2306 3072 2169 3072 
Q 1681 3072 1420 2755 
Q 1159 2438 1159 1844 
L 1159 0 
L 581 0 
L 581 3500 
L 1159 3500 
L 1159 2956 
Q 1341 3275 1631 3429 
Q 1922 3584 2338 3584 
Q 2397 3584 2469 3576 
Q 2541 3569 2628 3553 
L 2631 2963 
z
" transform="scale(0.015625)"/>
      <path id="DejaVuSans-64" d="M 2906 2969 
L 2906 4863 
L 3481 4863 
L 3481 0 
L 2906 0 
L 2906 525 
Q 2725 213 2448 61 
Q 2172 -91 1784 -91 
Q 1150 -91 751 415 
Q 353 922 353 1747 
Q 353 2572 751 3078 
Q 1150 3584 1784 3584 
Q 2172 3584 2448 3432 
Q 2725 3281 2906 2969 
z
M 947 1747 
Q 947 1113 1208 752 
Q 1469 391 1925 391 
Q 2381 391 2643 752 
Q 2906 1113 2906 1747 
Q 2906 2381 2643 2742 
Q 2381 3103 1925 3103 
Q 1469 3103 1208 2742 
Q 947 2381 947 1747 
z
" transform="scale(0.015625)"/>
      <path id="DejaVuSans-65" d="M 3597 1894 
L 3597 1613 
L 953 1613 
Q 991 1019 1311 708 
Q 1631 397 2203 397 
Q 2534 397 2845 478 
Q 3156 559 3463 722 
L 3463 178 
Q 3153 47 2828 -22 
Q 2503 -91 2169 -91 
Q 1331 -91 842 396 
Q 353 884 353 1716 
Q 353 2575 817 3079 
Q 1281 3584 2069 3584 
Q 2775 3584 3186 3129 
Q 3597 2675 3597 1894 
z
M 3022 2063 
Q 3016 2534 2758 2815 
Q 2500 3097 2075 3097 
Q 1594 3097 1305 2825 
Q 1016 2553 972 2059 
L 3022 2063 
z
" transform="scale(0.015625)"/>
      <path id="DejaVuSans-20" transform="scale(0.015625)"/>
      <path id="DejaVuSans-53" d="M 3425 4513 
L 3425 3897 
Q 3066 4069 2747 4153 
Q 2428 4238 2131 4238 
Q 1616 4238 1336 4038 
Q 1056 3838 1056 3469 
Q 1056 3159 1242 3001 
Q 1428 2844 1947 2747 
L 2328 2669 
Q 3034 2534 3370 2195 
Q 3706 1856 3706 1288 
Q 3706 609 3251 259 
Q 2797 -91 1919 -91 
Q 1588 -91 1214 -16 
Q 841 59 441 206 
L 441 856 
Q 825 641 1194 531 
Q 1563 422 1919 422 
Q 2459 422 2753 634 
Q 3047 847 3047 1241 
Q 3047 1584 2836 1778 
Q 2625 1972 2144 2069 
L 1759 2144 
Q 1053 2284 737 2584 
Q 422 2884 422 3419 
Q 422 4038 858 4394 
Q 1294 4750 2059 4750 
Q 2388 4750 2728 4690 
Q 3069 4631 3425 4513 
z
" transform="scale(0.015625)"/>
      <path id="DejaVuSans-3d" d="M 678 2906 
L 4684 2906 
L 4684 2381 
L 678 2381 
L 678 2906 
z
M 678 1631 
L 4684 1631 
L 4684 1100 
L 678 1100 
L 678 1631 
z
" transform="scale(0.015625)"/>
      <path id="DejaVuSans-2e" d="M 684 794 
L 1344 794 
L 1344 0 
L 684 0 
L 684 794 
z
" transform="scale(0.015625)"/>
     </defs>
     <use xlink:href="#DejaVuSans-4f"/>
     <use xlink:href="#DejaVuSans-72" transform="translate(78.710938 0)"/>
     <use xlink:href="#DejaVuSans-64" transform="translate(118.074219 0)"/>
     <use xlink:href="#DejaVuSans-65" transform="translate(181.550781 0)"/>
     <use xlink:href="#DejaVuSans-72" transform="translate(243.074219 0)"/>
     <use xlink:href="#DejaVuSans-20" transform="translate(284.1875 0)"/>
     <use xlink:href="#DejaVuSans-53" transform="translate(315.974609 0)"/>
     <use xlink:href="#DejaVuSans-3d" transform="translate(379.451172 0)"/>
     <use xlink:href="#DejaVuSans-30" transform="translate(463.240234 0)"/>
     <use xlink:href="#DejaVuSans-2e" transform="translate(526.863281 0)"/>
     <use xlink:href="#DejaVuSans-36" transform="translate(558.650391 0)"/>
     <use xlink:href="#DejaVuSans-37" transform="translate(622.273438 0)"/>
     <use xlink:href="#DejaVuSans-33" transform="translate(685.896484 0)"/>
    </g>
    <!-- Dominant axis=47.9 deg -->
    <g transform="translate(37.814996 273.929531) scale(0.085 -0.085)">
     <defs>
      <path id="DejaVuSans-44" d="M 1259 4147 
L 1259 519 
L 2022 519 
Q 2988 519 3436 956 
Q 3884 1394 3884 2338 
Q 3884 3275 3436 3711 
Q 2988 4147 2022 4147 
L 1259 4147 
z
M 628 4666 
L 1925 4666 
Q 3281 4666 3915 4102 
Q 4550 3538 4550 2338 
Q 4550 1131 3912 565 
Q 3275 0 1925 0 
L 628 0 
L 628 4666 
z
" transform="scale(0.015625)"/>
      <path id="DejaVuSans-6f" d="M 1959 3097 
Q 1497 3097 1228 2736 
Q 959 2375 959 1747 
Q 959 1119 1226 758 
Q 1494 397 1959 397 
Q 2419 397 2687 759 
Q 2956 1122 2956 1747 
Q 2956 2369 2687 2733 
Q 2419 3097 1959 3097 
z
M 1959 3584 
Q 2709 3584 3137 3096 
Q 3566 2609 3566 1747 
Q 3566 888 3137 398 
Q 2709 -91 1959 -91 
Q 1206 -91 779 398 
Q 353 888 353 1747 
Q 353 2609 779 3096 
Q 1206 3584 1959 3584 
z
" transform="scale(0.015625)"/>
      <path id="DejaVuSans-6d" d="M 3328 2828 
Q 3544 3216 3844 3400 
Q 4144 3584 4550 3584 
Q 5097 3584 5394 3201 
Q 5691 2819 5691 2113 
L 5691 0 
L 5113 0 
L 5113 2094 
Q 5113 2597 4934 2840 
Q 4756 3084 4391 3084 
Q 3944 3084 3684 2787 
Q 3425 2491 3425 1978 
L 3425 0 
L 2847 0 
L 2847 2094 
Q 2847 2600 2669 2842 
Q 2491 3084 2119 3084 
Q 1678 3084 1418 2786 
Q 1159 2488 1159 1978 
L 1159 0 
L 581 0 
L 581 3500 
L 1159 3500 
L 1159 2956 
Q 1356 3278 1631 3431 
Q 1906 3584 2284 3584 
Q 2666 3584 2933 3390 
Q 3200 3197 3328 2828 
z
" transform="scale(0.015625)"/>
      <path id="DejaVuSans-69" d="M 603 3500 
L 1178 3500 
L 1178 0 
L 603 0 
L 603 3500 
z
M 603 4863 
L 1178 4863 
L 1178 4134 
L 603 4134 
L 603 4863 
z
" transform="scale(0.015625)"/>
      <path id="DejaVuSans-6e" d="M 3513 2113 
L 3513 0 
L 2938 0 
L 2938 2094 
Q 2938 2591 2744 2837 
Q 2550 3084 2163 3084 
Q 1697 3084 1428 2787 
Q 1159 2491 1159 1978 
L 1159 0 
L 581 0 
L 581 3500 
L 1159 3500 
L 1159 2956 
Q 1366 3272 1645 3428 
Q 1925 3584 2291 3584 
Q 2894 3584 3203 3211 
Q 3513 2838 3513 2113 
z
" transform="scale(0.015625)"/>
      <path id="DejaVuSans-61" d="M 2194 1759 
Q 1497 1759 1228 1600 
Q 959 1441 959 1056 
Q 959 750 1161 570 
Q 1363 391 1709 391 
Q 2188 391 2477 730 
Q 2766 1069 2766 1631 
L 2766 1759 
L 2194 1759 
z
M 3341 1997 
L 3341 0 
L 2766 0 
L 2766 531 
Q 2569 213 2275 61 
Q 1981 -91 1556 -91 
Q 1019 -91 701 211 
Q 384 513 384 1019 
Q 384 1609 779 1909 
Q 1175 2209 1959 2209 
L 2766 2209 
L 2766 2266 
Q 2766 2663 2505 2880 
Q 2244 3097 1772 3097 
Q 1472 3097 1187 3025 
Q 903 2953 641 2809 
L 641 3341 
Q 956 3463 1253 3523 
Q 1550 3584 1831 3584 
Q 2591 3584 2966 3190 
Q 3341 2797 3341 1997 
z
" transform="scale(0.015625)"/>
      <path id="DejaVuSans-74" d="M 1172 4494 
L 1172 3500 
L 2356 3500 
L 2356 3053 
L 1172 3053 
L 1172 1153 
Q 1172 725 1289 603 
Q 1406 481 1766 481 
L 2356 481 
L 2356 0 
L 1766 0 
Q 1100 0 847 248 
Q 594 497 594 1153 
L 594 3053 
L 172 3053 
L 172 3500 
L 594 3500 
L 594 4494 
L 1172 4494 
z
" transform="scale(0.015625)"/>
      <path id="DejaVuSans-78" d="M 3513 3500 
L 2247 1797 
L 3578 0 
L 2900 0 
L 1881 1375 
L 863 0 
L 184 0 
L 1544 1831 
L 300 3500 
L 978 3500 
L 1906 2253 
L 2834 3500 
L 3513 3500 
z
" transform="scale(0.015625)"/>
      <path id="DejaVuSans-73" d="M 2834 3397 
L 2834 2853 
Q 2591 2978 2328 3040 
Q 2066 3103 1784 3103 
Q 1356 3103 1142 2972 
Q 928 2841 928 2578 
Q 928 2378 1081 2264 
Q 1234 2150 1697 2047 
L 1894 2003 
Q 2506 1872 2764 1633 
Q 3022 1394 3022 966 
Q 3022 478 2636 193 
Q 2250 -91 1575 -91 
Q 1294 -91 989 -36 
Q 684 19 347 128 
L 347 722 
Q 666 556 975 473 
Q 1284 391 1588 391 
Q 1994 391 2212 530 
Q 2431 669 2431 922 
Q 2431 1156 2273 1281 
Q 2116 1406 1581 1522 
L 1381 1569 
Q 847 1681 609 1914 
Q 372 2147 372 2553 
Q 372 3047 722 3315 
Q 1072 3584 1716 3584 
Q 2034 3584 2315 3537 
Q 2597 3491 2834 3397 
z
" transform="scale(0.015625)"/>
      <path id="DejaVuSans-67" d="M 2906 1791 
Q 2906 2416 2648 2759 
Q 2391 3103 1925 3103 
Q 1463 3103 1205 2759 
Q 947 2416 947 1791 
Q 947 1169 1205 825 
Q 1463 481 1925 481 
Q 2391 481 2648 825 
Q 2906 1169 2906 1791 
z
M 3481 434 
Q 3481 -459 3084 -895 
Q 2688 -1331 1869 -1331 
Q 1566 -1331 1297 -1286 
Q 1028 -1241 775 -1147 
L 775 -588 
Q 1028 -725 1275 -790 
Q 1522 -856 1778 -856 
Q 2344 -856 2625 -561 
Q 2906 -266 2906 331 
L 2906 616 
Q 2728 306 2450 153 
Q 2172 0 1784 0 
Q 1141 0 747 490 
Q 353 981 353 1791 
Q 353 2603 747 3093 
Q 1141 3584 1784 3584 
Q 2172 3584 2450 3431 
Q 2728 3278 2906 2969 
L 2906 3500 
L 3481 3500 
L 3481 434 
z
" transform="scale(0.015625)"/>
     </defs>
     <use xlink:href="#DejaVuSans-44"/>
     <use xlink:href="#DejaVuSans-6f" transform="translate(77.001953 0)"/>
     <use xlink:href="#DejaVuSans-6d" transform="translate(138.183594 0)"/>
     <use xlink:href="#DejaVuSans-69" transform="translate(235.595703 0)"/>
     <use xlink:href="#DejaVuSans-6e" transform="translate(263.378906 0)"/>
     <use xlink:href="#DejaVuSans-61" transform="translate(326.757812 0)"/>
     <use xlink:href="#DejaVuSans-6e" transform="translate(388.037109 0)"/>
     <use xlink:href="#DejaVuSans-74" transform="translate(451.416016 0)"/>
     <use xlink:href="#DejaVuSans-20" transform="translate(490.625 0)"/>
     <use xlink:href="#DejaVuSans-61" transform="translate(522.412109 0)"/>
     <use xlink:href="#DejaVuSans-78" transform="translate(583.691406 0)"/>
     <use xlink:href="#DejaVuSans-69" transform="translate(642.871094 0)"/>
     <use xlink:href="#DejaVuSans-73" transform="translate(670.654297 0)"/>
     <use xlink:href="#DejaVuSans-3d" transform="translate(722.753906 0)"/>
     <use xlink:href="#DejaVuSans-34" transform="translate(806.542969 0)"/>
     <use xlink:href="#DejaVuSans-37" transform="translate(870.166016 0)"/>
     <use xlink:href="#DejaVuSans-2e" transform="translate(933.789062 0)"/>
     <use xlink:href="#DejaVuSans-39" transform="translate(965.576172 0)"/>
     <use xlink:href="#DejaVuSans-20" transform="translate(1029.199219 0)"/>
     <use xlink:href="#DejaVuSans-64" transform="translate(1060.986328 0)"/>
     <use xlink:href="#DejaVuSans-65" transform="translate(1124.462891 0)"/>
     <use xlink:href="#DejaVuSans-67" transform="translate(1185.986328 0)"/>
    </g>
   </g>
   <g id="text_16">
    <!-- A. Fiber orientation field -->
    <g transform="translate(33.24375 34.241886) scale(0.11 -0.11)">
     <defs>
      <path id="DejaVuSans-Bold-41" d="M 3419 850 
L 1538 850 
L 1241 0 
L 31 0 
L 1759 4666 
L 3194 4666 
L 4922 0 
L 3713 0 
L 3419 850 
z
M 1838 1716 
L 3116 1716 
L 2478 3572 
L 1838 1716 
z
" transform="scale(0.015625)"/>
      <path id="DejaVuSans-Bold-2e" d="M 653 1209 
L 1778 1209 
L 1778 0 
L 653 0 
L 653 1209 
z
" transform="scale(0.015625)"/>
      <path id="DejaVuSans-Bold-20" transform="scale(0.015625)"/>
      <path id="DejaVuSans-Bold-46" d="M 588 4666 
L 3834 4666 
L 3834 3756 
L 1791 3756 
L 1791 2888 
L 3713 2888 
L 3713 1978 
L 1791 1978 
L 1791 0 
L 588 0 
L 588 4666 
z
" transform="scale(0.015625)"/>
      <path id="DejaVuSans-Bold-69" d="M 538 3500 
L 1656 3500 
L 1656 0 
L 538 0 
L 538 3500 
z
M 538 4863 
L 1656 4863 
L 1656 3950 
L 538 3950 
L 538 4863 
z
" transform="scale(0.015625)"/>
      <path id="DejaVuSans-Bold-62" d="M 2400 722 
Q 2759 722 2948 984 
Q 3138 1247 3138 1747 
Q 3138 2247 2948 2509 
Q 2759 2772 2400 2772 
Q 2041 2772 1848 2508 
Q 1656 2244 1656 1747 
Q 1656 1250 1848 986 
Q 2041 722 2400 722 
z
M 1656 2988 
Q 1888 3294 2169 3439 
Q 2450 3584 2816 3584 
Q 3463 3584 3878 3070 
Q 4294 2556 4294 1747 
Q 4294 938 3878 423 
Q 3463 -91 2816 -91 
Q 2450 -91 2169 54 
Q 1888 200 1656 506 
L 1656 0 
L 538 0 
L 538 4863 
L 1656 4863 
L 1656 2988 
z
" transform="scale(0.015625)"/>
      <path id="DejaVuSans-Bold-65" d="M 4031 1759 
L 4031 1441 
L 1416 1441 
Q 1456 1047 1700 850 
Q 1944 653 2381 653 
Q 2734 653 3104 758 
Q 3475 863 3866 1075 
L 3866 213 
Q 3469 63 3072 -14 
Q 2675 -91 2278 -91 
Q 1328 -91 801 392 
Q 275 875 275 1747 
Q 275 2603 792 3093 
Q 1309 3584 2216 3584 
Q 3041 3584 3536 3087 
Q 4031 2591 4031 1759 
z
M 2881 2131 
Q 2881 2450 2695 2645 
Q 2509 2841 2209 2841 
Q 1884 2841 1681 2658 
Q 1478 2475 1428 2131 
L 2881 2131 
z
" transform="scale(0.015625)"/>
      <path id="DejaVuSans-Bold-72" d="M 3138 2547 
Q 2991 2616 2845 2648 
Q 2700 2681 2553 2681 
Q 2122 2681 1889 2404 
Q 1656 2128 1656 1613 
L 1656 0 
L 538 0 
L 538 3500 
L 1656 3500 
L 1656 2925 
Q 1872 3269 2151 3426 
Q 2431 3584 2822 3584 
Q 2878 3584 2943 3579 
Q 3009 3575 3134 3559 
L 3138 2547 
z
" transform="scale(0.015625)"/>
      <path id="DejaVuSans-Bold-6f" d="M 2203 2784 
Q 1831 2784 1636 2517 
Q 1441 2250 1441 1747 
Q 1441 1244 1636 976 
Q 1831 709 2203 709 
Q 2569 709 2762 976 
Q 2956 1244 2956 1747 
Q 2956 2250 2762 2517 
Q 2569 2784 2203 2784 
z
M 2203 3584 
Q 3106 3584 3614 3096 
Q 4122 2609 4122 1747 
Q 4122 884 3614 396 
Q 3106 -91 2203 -91 
Q 1297 -91 786 396 
Q 275 884 275 1747 
Q 275 2609 786 3096 
Q 1297 3584 2203 3584 
z
" transform="scale(0.015625)"/>
      <path id="DejaVuSans-Bold-6e" d="M 4056 2131 
L 4056 0 
L 2931 0 
L 2931 347 
L 2931 1631 
Q 2931 2084 2911 2256 
Q 2891 2428 2841 2509 
Q 2775 2619 2662 2680 
Q 2550 2741 2406 2741 
Q 2056 2741 1856 2470 
Q 1656 2200 1656 1722 
L 1656 0 
L 538 0 
L 538 3500 
L 1656 3500 
L 1656 2988 
Q 1909 3294 2193 3439 
Q 2478 3584 2822 3584 
Q 3428 3584 3742 3212 
Q 4056 2841 4056 2131 
z
" transform="scale(0.015625)"/>
      <path id="DejaVuSans-Bold-74" d="M 1759 4494 
L 1759 3500 
L 2913 3500 
L 2913 2700 
L 1759 2700 
L 1759 1216 
Q 1759 972 1856 886 
Q 1953 800 2241 800 
L 2816 800 
L 2816 0 
L 1856 0 
Q 1194 0 917 276 
Q 641 553 641 1216 
L 641 2700 
L 84 2700 
L 84 3500 
L 641 3500 
L 641 4494 
L 1759 4494 
z
" transform="scale(0.015625)"/>
      <path id="DejaVuSans-Bold-61" d="M 2106 1575 
Q 1756 1575 1579 1456 
Q 1403 1338 1403 1106 
Q 1403 894 1545 773 
Q 1688 653 1941 653 
Q 2256 653 2472 879 
Q 2688 1106 2688 1447 
L 2688 1575 
L 2106 1575 
z
M 3816 1997 
L 3816 0 
L 2688 0 
L 2688 519 
Q 2463 200 2181 54 
Q 1900 -91 1497 -91 
Q 953 -91 614 226 
Q 275 544 275 1050 
Q 275 1666 698 1953 
Q 1122 2241 2028 2241 
L 2688 2241 
L 2688 2328 
Q 2688 2594 2478 2717 
Q 2269 2841 1825 2841 
Q 1466 2841 1156 2769 
Q 847 2697 581 2553 
L 581 3406 
Q 941 3494 1303 3539 
Q 1666 3584 2028 3584 
Q 2975 3584 3395 3211 
Q 3816 2838 3816 1997 
z
" transform="scale(0.015625)"/>
      <path id="DejaVuSans-Bold-66" d="M 2841 4863 
L 2841 4128 
L 2222 4128 
Q 1984 4128 1890 4042 
Q 1797 3956 1797 3744 
L 1797 3500 
L 2753 3500 
L 2753 2700 
L 1797 2700 
L 1797 0 
L 678 0 
L 678 2700 
L 122 2700 
L 122 3500 
L 678 3500 
L 678 3744 
Q 678 4316 997 4589 
Q 1316 4863 1984 4863 
L 2841 4863 
z
" transform="scale(0.015625)"/>
      <path id="DejaVuSans-Bold-6c" d="M 538 4863 
L 1656 4863 
L 1656 0 
L 538 0 
L 538 4863 
z
" transform="scale(0.015625)"/>
      <path id="DejaVuSans-Bold-64" d="M 2919 2988 
L 2919 4863 
L 4044 4863 
L 4044 0 
L 2919 0 
L 2919 506 
Q 2688 197 2409 53 
Q 2131 -91 1766 -91 
Q 1119 -91 703 423 
Q 288 938 288 1747 
Q 288 2556 703 3070 
Q 1119 3584 1766 3584 
Q 2128 3584 2408 3439 
Q 2688 3294 2919 2988 
z
M 2181 722 
Q 2541 722 2730 984 
Q 2919 1247 2919 1747 
Q 2919 2247 2730 2509 
Q 2541 2772 2181 2772 
Q 1825 2772 1636 2509 
Q 1447 2247 1447 1747 
Q 1447 1247 1636 984 
Q 1825 722 2181 722 
z
" transform="scale(0.015625)"/>
     </defs>
     <use xlink:href="#DejaVuSans-Bold-41"/>
     <use xlink:href="#DejaVuSans-Bold-2e" transform="translate(79.267578 0)"/>
     <use xlink:href="#DejaVuSans-Bold-20" transform="translate(117.255859 0)"/>
     <use xlink:href="#DejaVuSans-Bold-46" transform="translate(152.070312 0)"/>
     <use xlink:href="#DejaVuSans-Bold-69" transform="translate(220.380859 0)"/>
     <use xlink:href="#DejaVuSans-Bold-62" transform="translate(254.658203 0)"/>
     <use xlink:href="#DejaVuSans-Bold-65" transform="translate(326.240234 0)"/>
     <use xlink:href="#DejaVuSans-Bold-72" transform="translate(394.0625 0)"/>
     <use xlink:href="#DejaVuSans-Bold-20" transform="translate(443.378906 0)"/>
     <use xlink:href="#DejaVuSans-Bold-6f" transform="translate(478.193359 0)"/>
     <use xlink:href="#DejaVuSans-Bold-72" transform="translate(546.894531 0)"/>
     <use xlink:href="#DejaVuSans-Bold-69" transform="translate(596.210938 0)"/>
     <use xlink:href="#DejaVuSans-Bold-65" transform="translate(630.488281 0)"/>
     <use xlink:href="#DejaVuSans-Bold-6e" transform="translate(698.310547 0)"/>
     <use xlink:href="#DejaVuSans-Bold-74" transform="translate(769.501953 0)"/>
     <use xlink:href="#DejaVuSans-Bold-61" transform="translate(817.304688 0)"/>
     <use xlink:href="#DejaVuSans-Bold-74" transform="translate(884.785156 0)"/>
     <use xlink:href="#DejaVuSans-Bold-69" transform="translate(932.587891 0)"/>
     <use xlink:href="#DejaVuSans-Bold-6f" transform="translate(966.865234 0)"/>
     <use xlink:href="#DejaVuSans-Bold-6e" transform="translate(1035.566406 0)"/>
     <use xlink:href="#DejaVuSans-Bold-20" transform="translate(1106.757812 0)"/>
     <use xlink:href="#DejaVuSans-Bold-66" transform="translate(1141.572266 0)"/>
     <use xlink:href="#DejaVuSans-Bold-69" transform="translate(1185.078125 0)"/>
     <use xlink:href="#DejaVuSans-Bold-65" transform="translate(1219.355469 0)"/>
     <use xlink:href="#DejaVuSans-Bold-6c" transform="translate(1287.177734 0)"/>
     <use xlink:href="#DejaVuSans-Bold-64" transform="translate(1321.455078 0)"/>
    </g>
   </g>
  </g>
  <g id="axes_2">
   <g id="patch_5">
    <path d="M 364.267679 287.64327 
L 801.736787 287.64327 
L 801.736787 59.080949 
L 364.267679 59.080949 
z
" style="fill: #ffffff"/>
   </g>
   <g id="PathCollection_2">
    <defs>
     <path id="mc97e3d0dc5" d="M 0 3 
C 0.795609 3 1.55874 2.683901 2.12132 2.12132 
C 2.683901 1.55874 3 0.795609 3 0 
C 3 -0.795609 2.683901 -1.55874 2.12132 -2.12132 
C 1.55874 -2.683901 0.795609 -3 0 -3 
C -0.795609 -3 -1.55874 -2.683901 -2.12132 -2.12132 
C -2.683901 -1.55874 -3 -0.795609 -3 0 
C -3 0.795609 -2.683901 1.55874 -2.12132 2.12132 
C -1.55874 2.683901 -0.795609 3 0 3 
z
" style="stroke: #7c3aed"/>
    </defs>
    <g clip-path="url(#p516411da38)">
     <use xlink:href="#mc97e3d0dc5" x="384.152638" y="276.889266" style="fill: #7c3aed; stroke: #7c3aed"/>
     <use xlink:href="#mc97e3d0dc5" x="423.922557" y="256.366238" style="fill: #7c3aed; stroke: #7c3aed"/>
     <use xlink:href="#mc97e3d0dc5" x="463.692476" y="235.79457" style="fill: #7c3aed; stroke: #7c3aed"/>
     <use xlink:href="#mc97e3d0dc5" x="503.462395" y="215.17426" style="fill: #7c3aed; stroke: #7c3aed"/>
     <use xlink:href="#mc97e3d0dc5" x="543.232314" y="194.50531" style="fill: #7c3aed; stroke: #7c3aed"/>
     <use xlink:href="#mc97e3d0dc5" x="583.002233" y="173.787718" style="fill: #7c3aed; stroke: #7c3aed"/>
     <use xlink:href="#mc97e3d0dc5" x="622.772152" y="153.021486" style="fill: #7c3aed; stroke: #7c3aed"/>
     <use xlink:href="#mc97e3d0dc5" x="662.542071" y="132.206612" style="fill: #7c3aed; stroke: #7c3aed"/>
     <use xlink:href="#mc97e3d0dc5" x="702.31199" y="111.343097" style="fill: #7c3aed; stroke: #7c3aed"/>
     <use xlink:href="#mc97e3d0dc5" x="742.081909" y="90.430942" style="fill: #7c3aed; stroke: #7c3aed"/>
     <use xlink:href="#mc97e3d0dc5" x="781.851828" y="69.470145" style="fill: #7c3aed; stroke: #7c3aed"/>
    </g>
   </g>
   <g id="matplotlib.axis_3">
    <g id="xtick_9">
     <g id="line2d_16">
      <path d="M 384.152638 287.64327 
L 384.152638 59.080949 
" clip-path="url(#p516411da38)" style="fill: none; stroke: #e5e7eb; stroke-width: 0.8; stroke-linecap: square"/>
     </g>
     <g id="line2d_17">
      <defs>
       <path id="m3c2f0d0f22" d="M 0 0 
L 0 3.5 
" style="stroke: #000000; stroke-width: 0.8"/>
      </defs>
      <g>
       <use xlink:href="#m3c2f0d0f22" x="384.152638" y="287.64327" style="stroke: #000000; stroke-width: 0.8"/>
      </g>
     </g>
     <g id="text_17">
      <!-- 0.00 -->
      <g transform="translate(373.019826 302.241707) scale(0.1 -0.1)">
       <use xlink:href="#DejaVuSans-30"/>
       <use xlink:href="#DejaVuSans-2e" transform="translate(63.623047 0)"/>
       <use xlink:href="#DejaVuSans-30" transform="translate(95.410156 0)"/>
       <use xlink:href="#DejaVuSans-30" transform="translate(159.033203 0)"/>
      </g>
     </g>
    </g>
    <g id="xtick_10">
     <g id="line2d_18">
      <path d="M 463.692476 287.64327 
L 463.692476 59.080949 
" clip-path="url(#p516411da38)" style="fill: none; stroke: #e5e7eb; stroke-width: 0.8; stroke-linecap: square"/>
     </g>
     <g id="line2d_19">
      <g>
       <use xlink:href="#m3c2f0d0f22" x="463.692476" y="287.64327" style="stroke: #000000; stroke-width: 0.8"/>
      </g>
     </g>
     <g id="text_18">
      <!-- 0.02 -->
      <g transform="translate(452.559664 302.241707) scale(0.1 -0.1)">
       <use xlink:href="#DejaVuSans-30"/>
       <use xlink:href="#DejaVuSans-2e" transform="translate(63.623047 0)"/>
       <use xlink:href="#DejaVuSans-30" transform="translate(95.410156 0)"/>
       <use xlink:href="#DejaVuSans-32" transform="translate(159.033203 0)"/>
      </g>
     </g>
    </g>
    <g id="xtick_11">
     <g id="line2d_20">
      <path d="M 543.232314 287.64327 
L 543.232314 59.080949 
" clip-path="url(#p516411da38)" style="fill: none; stroke: #e5e7eb; stroke-width: 0.8; stroke-linecap: square"/>
     </g>
     <g id="line2d_21">
      <g>
       <use xlink:href="#m3c2f0d0f22" x="543.232314" y="287.64327" style="stroke: #000000; stroke-width: 0.8"/>
      </g>
     </g>
     <g id="text_19">
      <!-- 0.04 -->
      <g transform="translate(532.099502 302.241707) scale(0.1 -0.1)">
       <use xlink:href="#DejaVuSans-30"/>
       <use xlink:href="#DejaVuSans-2e" transform="translate(63.623047 0)"/>
       <use xlink:href="#DejaVuSans-30" transform="translate(95.410156 0)"/>
       <use xlink:href="#DejaVuSans-34" transform="translate(159.033203 0)"/>
      </g>
     </g>
    </g>
    <g id="xtick_12">
     <g id="line2d_22">
      <path d="M 622.772152 287.64327 
L 622.772152 59.080949 
" clip-path="url(#p516411da38)" style="fill: none; stroke: #e5e7eb; stroke-width: 0.8; stroke-linecap: square"/>
     </g>
     <g id="line2d_23">
      <g>
       <use xlink:href="#m3c2f0d0f22" x="622.772152" y="287.64327" style="stroke: #000000; stroke-width: 0.8"/>
      </g>
     </g>
     <g id="text_20">
      <!-- 0.06 -->
      <g transform="translate(611.63934 302.241707) scale(0.1 -0.1)">
       <use xlink:href="#DejaVuSans-30"/>
       <use xlink:href="#DejaVuSans-2e" transform="translate(63.623047 0)"/>
       <use xlink:href="#DejaVuSans-30" transform="translate(95.410156 0)"/>
       <use xlink:href="#DejaVuSans-36" transform="translate(159.033203 0)"/>
      </g>
     </g>
    </g>
    <g id="xtick_13">
     <g id="line2d_24">
      <path d="M 702.31199 287.64327 
L 702.31199 59.080949 
" clip-path="url(#p516411da38)" style="fill: none; stroke: #e5e7eb; stroke-width: 0.8; stroke-linecap: square"/>
     </g>
     <g id="line2d_25">
      <g>
       <use xlink:href="#m3c2f0d0f22" x="702.31199" y="287.64327" style="stroke: #000000; stroke-width: 0.8"/>
      </g>
     </g>
     <g id="text_21">
      <!-- 0.08 -->
      <g transform="translate(691.179177 302.241707) scale(0.1 -0.1)">
       <use xlink:href="#DejaVuSans-30"/>
       <use xlink:href="#DejaVuSans-2e" transform="translate(63.623047 0)"/>
       <use xlink:href="#DejaVuSans-30" transform="translate(95.410156 0)"/>
       <use xlink:href="#DejaVuSans-38" transform="translate(159.033203 0)"/>
      </g>
     </g>
    </g>
    <g id="xtick_14">
     <g id="line2d_26">
      <path d="M 781.851828 287.64327 
L 781.851828 59.080949 
" clip-path="url(#p516411da38)" style="fill: none; stroke: #e5e7eb; stroke-width: 0.8; stroke-linecap: square"/>
     </g>
     <g id="line2d_27">
      <g>
       <use xlink:href="#m3c2f0d0f22" x="781.851828" y="287.64327" style="stroke: #000000; stroke-width: 0.8"/>
      </g>
     </g>
     <g id="text_22">
      <!-- 0.10 -->
      <g transform="translate(770.719015 302.241707) scale(0.1 -0.1)">
       <use xlink:href="#DejaVuSans-30"/>
       <use xlink:href="#DejaVuSans-2e" transform="translate(63.623047 0)"/>
       <use xlink:href="#DejaVuSans-31" transform="translate(95.410156 0)"/>
       <use xlink:href="#DejaVuSans-30" transform="translate(159.033203 0)"/>
      </g>
     </g>
    </g>
    <g id="text_23">
     <!-- Strain (dimensionless) -->
     <g transform="translate(527.124108 315.919832) scale(0.1 -0.1)">
      <defs>
       <path id="DejaVuSans-28" d="M 1984 4856 
Q 1566 4138 1362 3434 
Q 1159 2731 1159 2009 
Q 1159 1288 1364 580 
Q 1569 -128 1984 -844 
L 1484 -844 
Q 1016 -109 783 600 
Q 550 1309 550 2009 
Q 550 2706 781 3412 
Q 1013 4119 1484 4856 
L 1984 4856 
z
" transform="scale(0.015625)"/>
       <path id="DejaVuSans-6c" d="M 603 4863 
L 1178 4863 
L 1178 0 
L 603 0 
L 603 4863 
z
" transform="scale(0.015625)"/>
       <path id="DejaVuSans-29" d="M 513 4856 
L 1013 4856 
Q 1481 4119 1714 3412 
Q 1947 2706 1947 2009 
Q 1947 1309 1714 600 
Q 1481 -109 1013 -844 
L 513 -844 
Q 928 -128 1133 580 
Q 1338 1288 1338 2009 
Q 1338 2731 1133 3434 
Q 928 4138 513 4856 
z
" transform="scale(0.015625)"/>
      </defs>
      <use xlink:href="#DejaVuSans-53"/>
      <use xlink:href="#DejaVuSans-74" transform="translate(63.476562 0)"/>
      <use xlink:href="#DejaVuSans-72" transform="translate(102.685547 0)"/>
      <use xlink:href="#DejaVuSans-61" transform="translate(143.798828 0)"/>
      <use xlink:href="#DejaVuSans-69" transform="translate(205.078125 0)"/>
      <use xlink:href="#DejaVuSans-6e" transform="translate(232.861328 0)"/>
      <use xlink:href="#DejaVuSans-20" transform="translate(296.240234 0)"/>
      <use xlink:href="#DejaVuSans-28" transform="translate(328.027344 0)"/>
      <use xlink:href="#DejaVuSans-64" transform="translate(367.041016 0)"/>
      <use xlink:href="#DejaVuSans-69" transform="translate(430.517578 0)"/>
      <use xlink:href="#DejaVuSans-6d" transform="translate(458.300781 0)"/>
      <use xlink:href="#DejaVuSans-65" transform="translate(555.712891 0)"/>
      <use xlink:href="#DejaVuSans-6e" transform="translate(617.236328 0)"/>
      <use xlink:href="#DejaVuSans-73" transform="translate(680.615234 0)"/>
      <use xlink:href="#DejaVuSans-69" transform="translate(732.714844 0)"/>
      <use xlink:href="#DejaVuSans-6f" transform="translate(760.498047 0)"/>
      <use xlink:href="#DejaVuSans-6e" transform="translate(821.679688 0)"/>
      <use xlink:href="#DejaVuSans-6c" transform="translate(885.058594 0)"/>
      <use xlink:href="#DejaVuSans-65" transform="translate(912.841797 0)"/>
      <use xlink:href="#DejaVuSans-73" transform="translate(974.365234 0)"/>
      <use xlink:href="#DejaVuSans-73" transform="translate(1026.464844 0)"/>
      <use xlink:href="#DejaVuSans-29" transform="translate(1078.564453 0)"/>
     </g>
    </g>
   </g>
   <g id="matplotlib.axis_4">
    <g id="ytick_7">
     <g id="line2d_28">
      <path d="M 364.267679 285.575159 
L 801.736787 285.575159 
" clip-path="url(#p516411da38)" style="fill: none; stroke: #e5e7eb; stroke-width: 0.8; stroke-linecap: square"/>
     </g>
     <g id="line2d_29">
      <defs>
       <path id="m33fdc8cef8" d="M 0 0 
L -3.5 0 
" style="stroke: #000000; stroke-width: 0.8"/>
      </defs>
      <g>
       <use xlink:href="#m33fdc8cef8" x="364.267679" y="285.575159" style="stroke: #000000; stroke-width: 0.8"/>
      </g>
     </g>
     <g id="text_24">
      <!-- 2 -->
      <g transform="translate(350.905179 289.374378) scale(0.1 -0.1)">
       <use xlink:href="#DejaVuSans-32"/>
      </g>
     </g>
    </g>
    <g id="ytick_8">
     <g id="line2d_30">
      <path d="M 364.267679 250.831588 
L 801.736787 250.831588 
" clip-path="url(#p516411da38)" style="fill: none; stroke: #e5e7eb; stroke-width: 0.8; stroke-linecap: square"/>
     </g>
     <g id="line2d_31">
      <g>
       <use xlink:href="#m33fdc8cef8" x="364.267679" y="250.831588" style="stroke: #000000; stroke-width: 0.8"/>
      </g>
     </g>
     <g id="text_25">
      <!-- 4 -->
      <g transform="translate(350.905179 254.630806) scale(0.1 -0.1)">
       <use xlink:href="#DejaVuSans-34"/>
      </g>
     </g>
    </g>
    <g id="ytick_9">
     <g id="line2d_32">
      <path d="M 364.267679 216.088016 
L 801.736787 216.088016 
" clip-path="url(#p516411da38)" style="fill: none; stroke: #e5e7eb; stroke-width: 0.8; stroke-linecap: square"/>
     </g>
     <g id="line2d_33">
      <g>
       <use xlink:href="#m33fdc8cef8" x="364.267679" y="216.088016" style="stroke: #000000; stroke-width: 0.8"/>
      </g>
     </g>
     <g id="text_26">
      <!-- 6 -->
      <g transform="translate(350.905179 219.887235) scale(0.1 -0.1)">
       <use xlink:href="#DejaVuSans-36"/>
      </g>
     </g>
    </g>
    <g id="ytick_10">
     <g id="line2d_34">
      <path d="M 364.267679 181.344445 
L 801.736787 181.344445 
" clip-path="url(#p516411da38)" style="fill: none; stroke: #e5e7eb; stroke-width: 0.8; stroke-linecap: square"/>
     </g>
     <g id="line2d_35">
      <g>
       <use xlink:href="#m33fdc8cef8" x="364.267679" y="181.344445" style="stroke: #000000; stroke-width: 0.8"/>
      </g>
     </g>
     <g id="text_27">
      <!-- 8 -->
      <g transform="translate(350.905179 185.143664) scale(0.1 -0.1)">
       <use xlink:href="#DejaVuSans-38"/>
      </g>
     </g>
    </g>
    <g id="ytick_11">
     <g id="line2d_36">
      <path d="M 364.267679 146.600874 
L 801.736787 146.600874 
" clip-path="url(#p516411da38)" style="fill: none; stroke: #e5e7eb; stroke-width: 0.8; stroke-linecap: square"/>
     </g>
     <g id="line2d_37">
      <g>
       <use xlink:href="#m33fdc8cef8" x="364.267679" y="146.600874" style="stroke: #000000; stroke-width: 0.8"/>
      </g>
     </g>
     <g id="text_28">
      <!-- 10 -->
      <g transform="translate(344.542679 150.400092) scale(0.1 -0.1)">
       <use xlink:href="#DejaVuSans-31"/>
       <use xlink:href="#DejaVuSans-30" transform="translate(63.623047 0)"/>
      </g>
     </g>
    </g>
    <g id="ytick_12">
     <g id="line2d_38">
      <path d="M 364.267679 111.857302 
L 801.736787 111.857302 
" clip-path="url(#p516411da38)" style="fill: none; stroke: #e5e7eb; stroke-width: 0.8; stroke-linecap: square"/>
     </g>
     <g id="line2d_39">
      <g>
       <use xlink:href="#m33fdc8cef8" x="364.267679" y="111.857302" style="stroke: #000000; stroke-width: 0.8"/>
      </g>
     </g>
     <g id="text_29">
      <!-- 12 -->
      <g transform="translate(344.542679 115.656521) scale(0.1 -0.1)">
       <use xlink:href="#DejaVuSans-31"/>
       <use xlink:href="#DejaVuSans-32" transform="translate(63.623047 0)"/>
      </g>
     </g>
    </g>
    <g id="ytick_13">
     <g id="line2d_40">
      <path d="M 364.267679 77.113731 
L 801.736787 77.113731 
" clip-path="url(#p516411da38)" style="fill: none; stroke: #e5e7eb; stroke-width: 0.8; stroke-linecap: square"/>
     </g>
     <g id="line2d_41">
      <g>
       <use xlink:href="#m33fdc8cef8" x="364.267679" y="77.113731" style="stroke: #000000; stroke-width: 0.8"/>
      </g>
     </g>
     <g id="text_30">
      <!-- 14 -->
      <g transform="translate(344.542679 80.91295) scale(0.1 -0.1)">
       <use xlink:href="#DejaVuSans-31"/>
       <use xlink:href="#DejaVuSans-34" transform="translate(63.623047 0)"/>
      </g>
     </g>
    </g>
    <g id="text_31">
     <!-- Stress (kPa) -->
     <g transform="translate(338.462991 202.965234) rotate(-90) scale(0.1 -0.1)">
      <defs>
       <path id="DejaVuSans-6b" d="M 581 4863 
L 1159 4863 
L 1159 1991 
L 2875 3500 
L 3609 3500 
L 1753 1863 
L 3688 0 
L 2938 0 
L 1159 1709 
L 1159 0 
L 581 0 
L 581 4863 
z
" transform="scale(0.015625)"/>
       <path id="DejaVuSans-50" d="M 1259 4147 
L 1259 2394 
L 2053 2394 
Q 2494 2394 2734 2622 
Q 2975 2850 2975 3272 
Q 2975 3691 2734 3919 
Q 2494 4147 2053 4147 
L 1259 4147 
z
M 628 4666 
L 2053 4666 
Q 2838 4666 3239 4311 
Q 3641 3956 3641 3272 
Q 3641 2581 3239 2228 
Q 2838 1875 2053 1875 
L 1259 1875 
L 1259 0 
L 628 0 
L 628 4666 
z
" transform="scale(0.015625)"/>
      </defs>
      <use xlink:href="#DejaVuSans-53"/>
      <use xlink:href="#DejaVuSans-74" transform="translate(63.476562 0)"/>
      <use xlink:href="#DejaVuSans-72" transform="translate(102.685547 0)"/>
      <use xlink:href="#DejaVuSans-65" transform="translate(141.548828 0)"/>
      <use xlink:href="#DejaVuSans-73" transform="translate(203.072266 0)"/>
      <use xlink:href="#DejaVuSans-73" transform="translate(255.171875 0)"/>
      <use xlink:href="#DejaVuSans-20" transform="translate(307.271484 0)"/>
      <use xlink:href="#DejaVuSans-28" transform="translate(339.058594 0)"/>
      <use xlink:href="#DejaVuSans-6b" transform="translate(378.072266 0)"/>
      <use xlink:href="#DejaVuSans-50" transform="translate(435.982422 0)"/>
      <use xlink:href="#DejaVuSans-61" transform="translate(491.785156 0)"/>
      <use xlink:href="#DejaVuSans-29" transform="translate(553.064453 0)"/>
     </g>
    </g>
   </g>
   <g id="line2d_42">
    <path d="M 384.152638 277.254074 
L 423.922557 256.512161 
L 463.692476 235.770249 
L 503.462395 215.028337 
L 543.232314 194.286425 
L 583.002233 173.544513 
L 622.772152 152.802601 
L 662.542071 132.060689 
L 702.31199 111.318777 
L 742.081909 90.576865 
L 781.851828 69.834953 
" clip-path="url(#p516411da38)" style="fill: none; stroke-dasharray: 5.55,2.4; stroke-dashoffset: 0; stroke: #111827; stroke-width: 1.5"/>
   </g>
   <g id="patch_6">
    <path d="M 364.267679 287.64327 
L 364.267679 59.080949 
" style="fill: none; stroke: #000000; stroke-width: 0.8; stroke-linejoin: miter; stroke-linecap: square"/>
   </g>
   <g id="patch_7">
    <path d="M 364.267679 287.64327 
L 801.736787 287.64327 
" style="fill: none; stroke: #000000; stroke-width: 0.8; stroke-linejoin: miter; stroke-linecap: square"/>
   </g>
   <g id="text_32">
    <g id="patch_8">
     <path d="M 373.017061 93.889883 
L 631.492764 93.889883 
Q 634.467764 93.889883 634.467764 90.914883 
L 634.467764 63.652195 
Q 634.467764 60.677195 631.492764 60.677195 
L 373.017061 60.677195 
Q 370.042061 60.677195 370.042061 63.652195 
L 370.042061 90.914883 
Q 370.042061 93.889883 373.017061 93.889883 
z
" style="fill: #ffffff; opacity: 0.94; stroke: #cbd5e1; stroke-linejoin: miter"/>
    </g>
    <!-- Stiffness: 119.4 kPa -->
    <g transform="translate(373.017061 70.110867) scale(0.085 -0.085)">
     <defs>
      <path id="DejaVuSans-66" d="M 2375 4863 
L 2375 4384 
L 1825 4384 
Q 1516 4384 1395 4259 
Q 1275 4134 1275 3809 
L 1275 3500 
L 2222 3500 
L 2222 3053 
L 1275 3053 
L 1275 0 
L 697 0 
L 697 3053 
L 147 3053 
L 147 3500 
L 697 3500 
L 697 3744 
Q 697 4328 969 4595 
Q 1241 4863 1831 4863 
L 2375 4863 
z
" transform="scale(0.015625)"/>
      <path id="DejaVuSans-3a" d="M 750 794 
L 1409 794 
L 1409 0 
L 750 0 
L 750 794 
z
M 750 3309 
L 1409 3309 
L 1409 2516 
L 750 2516 
L 750 3309 
z
" transform="scale(0.015625)"/>
     </defs>
     <use xlink:href="#DejaVuSans-53"/>
     <use xlink:href="#DejaVuSans-74" transform="translate(63.476562 0)"/>
     <use xlink:href="#DejaVuSans-69" transform="translate(102.685547 0)"/>
     <use xlink:href="#DejaVuSans-66" transform="translate(130.46875 0)"/>
     <use xlink:href="#DejaVuSans-66" transform="translate(165.673828 0)"/>
     <use xlink:href="#DejaVuSans-6e" transform="translate(200.878906 0)"/>
     <use xlink:href="#DejaVuSans-65" transform="translate(264.257812 0)"/>
     <use xlink:href="#DejaVuSans-73" transform="translate(325.78125 0)"/>
     <use xlink:href="#DejaVuSans-73" transform="translate(377.880859 0)"/>
     <use xlink:href="#DejaVuSans-3a" transform="translate(429.980469 0)"/>
     <use xlink:href="#DejaVuSans-20" transform="translate(463.671875 0)"/>
     <use xlink:href="#DejaVuSans-31" transform="translate(495.458984 0)"/>
     <use xlink:href="#DejaVuSans-31" transform="translate(559.082031 0)"/>
     <use xlink:href="#DejaVuSans-39" transform="translate(622.705078 0)"/>
     <use xlink:href="#DejaVuSans-2e" transform="translate(686.328125 0)"/>
     <use xlink:href="#DejaVuSans-34" transform="translate(718.115234 0)"/>
     <use xlink:href="#DejaVuSans-20" transform="translate(781.738281 0)"/>
     <use xlink:href="#DejaVuSans-6b" transform="translate(813.525391 0)"/>
     <use xlink:href="#DejaVuSans-50" transform="translate(871.435547 0)"/>
     <use xlink:href="#DejaVuSans-61" transform="translate(927.238281 0)"/>
    </g>
    <!-- R2: 0.99999 -->
    <g transform="translate(373.017061 79.629008) scale(0.085 -0.085)">
     <defs>
      <path id="DejaVuSans-52" d="M 2841 2188 
Q 3044 2119 3236 1894 
Q 3428 1669 3622 1275 
L 4263 0 
L 3584 0 
L 2988 1197 
Q 2756 1666 2539 1819 
Q 2322 1972 1947 1972 
L 1259 1972 
L 1259 0 
L 628 0 
L 628 4666 
L 2053 4666 
Q 2853 4666 3247 4331 
Q 3641 3997 3641 3322 
Q 3641 2881 3436 2590 
Q 3231 2300 2841 2188 
z
M 1259 4147 
L 1259 2491 
L 2053 2491 
Q 2509 2491 2742 2702 
Q 2975 2913 2975 3322 
Q 2975 3731 2742 3939 
Q 2509 4147 2053 4147 
L 1259 4147 
z
" transform="scale(0.015625)"/>
     </defs>
     <use xlink:href="#DejaVuSans-52"/>
     <use xlink:href="#DejaVuSans-32" transform="translate(69.482422 0)"/>
     <use xlink:href="#DejaVuSans-3a" transform="translate(133.105469 0)"/>
     <use xlink:href="#DejaVuSans-20" transform="translate(166.796875 0)"/>
     <use xlink:href="#DejaVuSans-30" transform="translate(198.583984 0)"/>
     <use xlink:href="#DejaVuSans-2e" transform="translate(262.207031 0)"/>
     <use xlink:href="#DejaVuSans-39" transform="translate(293.994141 0)"/>
     <use xlink:href="#DejaVuSans-39" transform="translate(357.617188 0)"/>
     <use xlink:href="#DejaVuSans-39" transform="translate(421.240234 0)"/>
     <use xlink:href="#DejaVuSans-39" transform="translate(484.863281 0)"/>
     <use xlink:href="#DejaVuSans-39" transform="translate(548.486328 0)"/>
    </g>
    <!-- Conclusion: anisotropic network with linear tensile response. -->
    <g transform="translate(373.017061 89.147148) scale(0.085 -0.085)">
     <defs>
      <path id="DejaVuSans-43" d="M 4122 4306 
L 4122 3641 
Q 3803 3938 3442 4084 
Q 3081 4231 2675 4231 
Q 1875 4231 1450 3742 
Q 1025 3253 1025 2328 
Q 1025 1406 1450 917 
Q 1875 428 2675 428 
Q 3081 428 3442 575 
Q 3803 722 4122 1019 
L 4122 359 
Q 3791 134 3420 21 
Q 3050 -91 2638 -91 
Q 1578 -91 968 557 
Q 359 1206 359 2328 
Q 359 3453 968 4101 
Q 1578 4750 2638 4750 
Q 3056 4750 3426 4639 
Q 3797 4528 4122 4306 
z
" transform="scale(0.015625)"/>
      <path id="DejaVuSans-63" d="M 3122 3366 
L 3122 2828 
Q 2878 2963 2633 3030 
Q 2388 3097 2138 3097 
Q 1578 3097 1268 2742 
Q 959 2388 959 1747 
Q 959 1106 1268 751 
Q 1578 397 2138 397 
Q 2388 397 2633 464 
Q 2878 531 3122 666 
L 3122 134 
Q 2881 22 2623 -34 
Q 2366 -91 2075 -91 
Q 1284 -91 818 406 
Q 353 903 353 1747 
Q 353 2603 823 3093 
Q 1294 3584 2113 3584 
Q 2378 3584 2631 3529 
Q 2884 3475 3122 3366 
z
" transform="scale(0.015625)"/>
      <path id="DejaVuSans-75" d="M 544 1381 
L 544 3500 
L 1119 3500 
L 1119 1403 
Q 1119 906 1312 657 
Q 1506 409 1894 409 
Q 2359 409 2629 706 
Q 2900 1003 2900 1516 
L 2900 3500 
L 3475 3500 
L 3475 0 
L 2900 0 
L 2900 538 
Q 2691 219 2414 64 
Q 2138 -91 1772 -91 
Q 1169 -91 856 284 
Q 544 659 544 1381 
z
M 1991 3584 
L 1991 3584 
z
" transform="scale(0.015625)"/>
      <path id="DejaVuSans-70" d="M 1159 525 
L 1159 -1331 
L 581 -1331 
L 581 3500 
L 1159 3500 
L 1159 2969 
Q 1341 3281 1617 3432 
Q 1894 3584 2278 3584 
Q 2916 3584 3314 3078 
Q 3713 2572 3713 1747 
Q 3713 922 3314 415 
Q 2916 -91 2278 -91 
Q 1894 -91 1617 61 
Q 1341 213 1159 525 
z
M 3116 1747 
Q 3116 2381 2855 2742 
Q 2594 3103 2138 3103 
Q 1681 3103 1420 2742 
Q 1159 2381 1159 1747 
Q 1159 1113 1420 752 
Q 1681 391 2138 391 
Q 2594 391 2855 752 
Q 3116 1113 3116 1747 
z
" transform="scale(0.015625)"/>
      <path id="DejaVuSans-77" d="M 269 3500 
L 844 3500 
L 1563 769 
L 2278 3500 
L 2956 3500 
L 3675 769 
L 4391 3500 
L 4966 3500 
L 4050 0 
L 3372 0 
L 2619 2869 
L 1863 0 
L 1184 0 
L 269 3500 
z
" transform="scale(0.015625)"/>
      <path id="DejaVuSans-68" d="M 3513 2113 
L 3513 0 
L 2938 0 
L 2938 2094 
Q 2938 2591 2744 2837 
Q 2550 3084 2163 3084 
Q 1697 3084 1428 2787 
Q 1159 2491 1159 1978 
L 1159 0 
L 581 0 
L 581 4863 
L 1159 4863 
L 1159 2956 
Q 1366 3272 1645 3428 
Q 1925 3584 2291 3584 
Q 2894 3584 3203 3211 
Q 3513 2838 3513 2113 
z
" transform="scale(0.015625)"/>
     </defs>
     <use xlink:href="#DejaVuSans-43"/>
     <use xlink:href="#DejaVuSans-6f" transform="translate(69.824219 0)"/>
     <use xlink:href="#DejaVuSans-6e" transform="translate(131.005859 0)"/>
     <use xlink:href="#DejaVuSans-63" transform="translate(194.384766 0)"/>
     <use xlink:href="#DejaVuSans-6c" transform="translate(249.365234 0)"/>
     <use xlink:href="#DejaVuSans-75" transform="translate(277.148438 0)"/>
     <use xlink:href="#DejaVuSans-73" transform="translate(340.527344 0)"/>
     <use xlink:href="#DejaVuSans-69" transform="translate(392.626953 0)"/>
     <use xlink:href="#DejaVuSans-6f" transform="translate(420.410156 0)"/>
     <use xlink:href="#DejaVuSans-6e" transform="translate(481.591797 0)"/>
     <use xlink:href="#DejaVuSans-3a" transform="translate(544.970703 0)"/>
     <use xlink:href="#DejaVuSans-20" transform="translate(578.662109 0)"/>
     <use xlink:href="#DejaVuSans-61" transform="translate(610.449219 0)"/>
     <use xlink:href="#DejaVuSans-6e" transform="translate(671.728516 0)"/>
     <use xlink:href="#DejaVuSans-69" transform="translate(735.107422 0)"/>
     <use xlink:href="#DejaVuSans-73" transform="translate(762.890625 0)"/>
     <use xlink:href="#DejaVuSans-6f" transform="translate(814.990234 0)"/>
     <use xlink:href="#DejaVuSans-74" transform="translate(876.171875 0)"/>
     <use xlink:href="#DejaVuSans-72" transform="translate(915.380859 0)"/>
     <use xlink:href="#DejaVuSans-6f" transform="translate(954.244141 0)"/>
     <use xlink:href="#DejaVuSans-70" transform="translate(1015.425781 0)"/>
     <use xlink:href="#DejaVuSans-69" transform="translate(1078.902344 0)"/>
     <use xlink:href="#DejaVuSans-63" transform="translate(1106.685547 0)"/>
     <use xlink:href="#DejaVuSans-20" transform="translate(1161.666016 0)"/>
     <use xlink:href="#DejaVuSans-6e" transform="translate(1193.453125 0)"/>
     <use xlink:href="#DejaVuSans-65" transform="translate(1256.832031 0)"/>
     <use xlink:href="#DejaVuSans-74" transform="translate(1318.355469 0)"/>
     <use xlink:href="#DejaVuSans-77" transform="translate(1357.564453 0)"/>
     <use xlink:href="#DejaVuSans-6f" transform="translate(1439.351562 0)"/>
     <use xlink:href="#DejaVuSans-72" transform="translate(1500.533203 0)"/>
     <use xlink:href="#DejaVuSans-6b" transform="translate(1541.646484 0)"/>
     <use xlink:href="#DejaVuSans-20" transform="translate(1599.556641 0)"/>
     <use xlink:href="#DejaVuSans-77" transform="translate(1631.34375 0)"/>
     <use xlink:href="#DejaVuSans-69" transform="translate(1713.130859 0)"/>
     <use xlink:href="#DejaVuSans-74" transform="translate(1740.914062 0)"/>
     <use xlink:href="#DejaVuSans-68" transform="translate(1780.123047 0)"/>
     <use xlink:href="#DejaVuSans-20" transform="translate(1843.501953 0)"/>
     <use xlink:href="#DejaVuSans-6c" transform="translate(1875.289062 0)"/>
     <use xlink:href="#DejaVuSans-69" transform="translate(1903.072266 0)"/>
     <use xlink:href="#DejaVuSans-6e" transform="translate(1930.855469 0)"/>
     <use xlink:href="#DejaVuSans-65" transform="translate(1994.234375 0)"/>
     <use xlink:href="#DejaVuSans-61" transform="translate(2055.757812 0)"/>
     <use xlink:href="#DejaVuSans-72" transform="translate(2117.037109 0)"/>
     <use xlink:href="#DejaVuSans-20" transform="translate(2158.150391 0)"/>
     <use xlink:href="#DejaVuSans-74" transform="translate(2189.9375 0)"/>
     <use xlink:href="#DejaVuSans-65" transform="translate(2229.146484 0)"/>
     <use xlink:href="#DejaVuSans-6e" transform="translate(2290.669922 0)"/>
     <use xlink:href="#DejaVuSans-73" transform="translate(2354.048828 0)"/>
     <use xlink:href="#DejaVuSans-69" transform="translate(2406.148438 0)"/>
     <use xlink:href="#DejaVuSans-6c" transform="translate(2433.931641 0)"/>
     <use xlink:href="#DejaVuSans-65" transform="translate(2461.714844 0)"/>
     <use xlink:href="#DejaVuSans-20" transform="translate(2523.238281 0)"/>
     <use xlink:href="#DejaVuSans-72" transform="translate(2555.025391 0)"/>
     <use xlink:href="#DejaVuSans-65" transform="translate(2593.888672 0)"/>
     <use xlink:href="#DejaVuSans-73" transform="translate(2655.412109 0)"/>
     <use xlink:href="#DejaVuSans-70" transform="translate(2707.511719 0)"/>
     <use xlink:href="#DejaVuSans-6f" transform="translate(2770.988281 0)"/>
     <use xlink:href="#DejaVuSans-6e" transform="translate(2832.169922 0)"/>
     <use xlink:href="#DejaVuSans-73" transform="translate(2895.548828 0)"/>
     <use xlink:href="#DejaVuSans-65" transform="translate(2947.648438 0)"/>
     <use xlink:href="#DejaVuSans-2e" transform="translate(3009.171875 0)"/>
    </g>
   </g>
   <g id="text_33">
    <!-- B. Network tensile stiffness -->
    <g transform="translate(364.267679 53.080949) scale(0.11 -0.11)">
     <defs>
      <path id="DejaVuSans-Bold-42" d="M 2456 2859 
Q 2741 2859 2887 2984 
Q 3034 3109 3034 3353 
Q 3034 3594 2887 3720 
Q 2741 3847 2456 3847 
L 1791 3847 
L 1791 2859 
L 2456 2859 
z
M 2497 819 
Q 2859 819 3042 972 
Q 3225 1125 3225 1434 
Q 3225 1738 3044 1889 
Q 2863 2041 2497 2041 
L 1791 2041 
L 1791 819 
L 2497 819 
z
M 3616 2497 
Q 4003 2384 4215 2081 
Q 4428 1778 4428 1338 
Q 4428 663 3972 331 
Q 3516 0 2584 0 
L 588 0 
L 588 4666 
L 2394 4666 
Q 3366 4666 3802 4372 
Q 4238 4078 4238 3431 
Q 4238 3091 4078 2852 
Q 3919 2613 3616 2497 
z
" transform="scale(0.015625)"/>
      <path id="DejaVuSans-Bold-4e" d="M 588 4666 
L 1931 4666 
L 3628 1466 
L 3628 4666 
L 4769 4666 
L 4769 0 
L 3425 0 
L 1728 3200 
L 1728 0 
L 588 0 
L 588 4666 
z
" transform="scale(0.015625)"/>
      <path id="DejaVuSans-Bold-77" d="M 225 3500 
L 1313 3500 
L 1900 1088 
L 2491 3500 
L 3425 3500 
L 4013 1113 
L 4603 3500 
L 5691 3500 
L 4769 0 
L 3547 0 
L 2956 2406 
L 2369 0 
L 1147 0 
L 225 3500 
z
" transform="scale(0.015625)"/>
      <path id="DejaVuSans-Bold-6b" d="M 538 4863 
L 1656 4863 
L 1656 2216 
L 2944 3500 
L 4244 3500 
L 2534 1894 
L 4378 0 
L 3022 0 
L 1656 1459 
L 1656 0 
L 538 0 
L 538 4863 
z
" transform="scale(0.015625)"/>
      <path id="DejaVuSans-Bold-73" d="M 3272 3391 
L 3272 2541 
Q 2913 2691 2578 2766 
Q 2244 2841 1947 2841 
Q 1628 2841 1473 2761 
Q 1319 2681 1319 2516 
Q 1319 2381 1436 2309 
Q 1553 2238 1856 2203 
L 2053 2175 
Q 2913 2066 3209 1816 
Q 3506 1566 3506 1031 
Q 3506 472 3093 190 
Q 2681 -91 1863 -91 
Q 1516 -91 1145 -36 
Q 775 19 384 128 
L 384 978 
Q 719 816 1070 734 
Q 1422 653 1784 653 
Q 2113 653 2278 743 
Q 2444 834 2444 1013 
Q 2444 1163 2330 1236 
Q 2216 1309 1875 1350 
L 1678 1375 
Q 931 1469 631 1722 
Q 331 1975 331 2491 
Q 331 3047 712 3315 
Q 1094 3584 1881 3584 
Q 2191 3584 2531 3537 
Q 2872 3491 3272 3391 
z
" transform="scale(0.015625)"/>
     </defs>
     <use xlink:href="#DejaVuSans-Bold-42"/>
     <use xlink:href="#DejaVuSans-Bold-2e" transform="translate(76.220703 0)"/>
     <use xlink:href="#DejaVuSans-Bold-20" transform="translate(114.208984 0)"/>
     <use xlink:href="#DejaVuSans-Bold-4e" transform="translate(149.023438 0)"/>
     <use xlink:href="#DejaVuSans-Bold-65" transform="translate(232.714844 0)"/>
     <use xlink:href="#DejaVuSans-Bold-74" transform="translate(300.537109 0)"/>
     <use xlink:href="#DejaVuSans-Bold-77" transform="translate(348.339844 0)"/>
     <use xlink:href="#DejaVuSans-Bold-6f" transform="translate(440.722656 0)"/>
     <use xlink:href="#DejaVuSans-Bold-72" transform="translate(509.423828 0)"/>
     <use xlink:href="#DejaVuSans-Bold-6b" transform="translate(558.740234 0)"/>
     <use xlink:href="#DejaVuSans-Bold-20" transform="translate(625.244141 0)"/>
     <use xlink:href="#DejaVuSans-Bold-74" transform="translate(660.058594 0)"/>
     <use xlink:href="#DejaVuSans-Bold-65" transform="translate(707.861328 0)"/>
     <use xlink:href="#DejaVuSans-Bold-6e" transform="translate(775.683594 0)"/>
     <use xlink:href="#DejaVuSans-Bold-73" transform="translate(846.875 0)"/>
     <use xlink:href="#DejaVuSans-Bold-69" transform="translate(906.396484 0)"/>
     <use xlink:href="#DejaVuSans-Bold-6c" transform="translate(940.673828 0)"/>
     <use xlink:href="#DejaVuSans-Bold-65" transform="translate(974.951172 0)"/>
     <use xlink:href="#DejaVuSans-Bold-20" transform="translate(1042.773438 0)"/>
     <use xlink:href="#DejaVuSans-Bold-73" transform="translate(1077.587891 0)"/>
     <use xlink:href="#DejaVuSans-Bold-74" transform="translate(1137.109375 0)"/>
     <use xlink:href="#DejaVuSans-Bold-69" transform="translate(1184.912109 0)"/>
     <use xlink:href="#DejaVuSans-Bold-66" transform="translate(1219.189453 0)"/>
     <use xlink:href="#DejaVuSans-Bold-66" transform="translate(1262.695312 0)"/>
     <use xlink:href="#DejaVuSans-Bold-6e" transform="translate(1306.201172 0)"/>
     <use xlink:href="#DejaVuSans-Bold-65" transform="translate(1377.392578 0)"/>
     <use xlink:href="#DejaVuSans-Bold-73" transform="translate(1445.214844 0)"/>
     <use xlink:href="#DejaVuSans-Bold-73" transform="translate(1504.736328 0)"/>
    </g>
   </g>
   <g id="legend_1">
    <g id="PathCollection_3">
     <g>
      <use xlink:href="#mc97e3d0dc5" x="691.391787" y="264.93702" style="fill: #7c3aed; stroke: #7c3aed"/>
     </g>
    </g>
    <g id="text_34">
     <!-- synthetic stress-strain -->
     <g transform="translate(705.791787 267.03702) scale(0.08 -0.08)">
      <defs>
       <path id="DejaVuSans-79" d="M 2059 -325 
Q 1816 -950 1584 -1140 
Q 1353 -1331 966 -1331 
L 506 -1331 
L 506 -850 
L 844 -850 
Q 1081 -850 1212 -737 
Q 1344 -625 1503 -206 
L 1606 56 
L 191 3500 
L 800 3500 
L 1894 763 
L 2988 3500 
L 3597 3500 
L 2059 -325 
z
" transform="scale(0.015625)"/>
       <path id="DejaVuSans-2d" d="M 313 2009 
L 1997 2009 
L 1997 1497 
L 313 1497 
L 313 2009 
z
" transform="scale(0.015625)"/>
      </defs>
      <use xlink:href="#DejaVuSans-73"/>
      <use xlink:href="#DejaVuSans-79" transform="translate(52.099609 0)"/>
      <use xlink:href="#DejaVuSans-6e" transform="translate(111.279297 0)"/>
      <use xlink:href="#DejaVuSans-74" transform="translate(174.658203 0)"/>
      <use xlink:href="#DejaVuSans-68" transform="translate(213.867188 0)"/>
      <use xlink:href="#DejaVuSans-65" transform="translate(277.246094 0)"/>
      <use xlink:href="#DejaVuSans-74" transform="translate(338.769531 0)"/>
      <use xlink:href="#DejaVuSans-69" transform="translate(377.978516 0)"/>
      <use xlink:href="#DejaVuSans-63" transform="translate(405.761719 0)"/>
      <use xlink:href="#DejaVuSans-20" transform="translate(460.742188 0)"/>
      <use xlink:href="#DejaVuSans-73" transform="translate(492.529297 0)"/>
      <use xlink:href="#DejaVuSans-74" transform="translate(544.628906 0)"/>
      <use xlink:href="#DejaVuSans-72" transform="translate(583.837891 0)"/>
      <use xlink:href="#DejaVuSans-65" transform="translate(622.701172 0)"/>
      <use xlink:href="#DejaVuSans-73" transform="translate(684.224609 0)"/>
      <use xlink:href="#DejaVuSans-73" transform="translate(736.324219 0)"/>
      <use xlink:href="#DejaVuSans-2d" transform="translate(788.423828 0)"/>
      <use xlink:href="#DejaVuSans-73" transform="translate(824.507812 0)"/>
      <use xlink:href="#DejaVuSans-74" transform="translate(876.607422 0)"/>
      <use xlink:href="#DejaVuSans-72" transform="translate(915.816406 0)"/>
      <use xlink:href="#DejaVuSans-61" transform="translate(956.929688 0)"/>
      <use xlink:href="#DejaVuSans-69" transform="translate(1018.208984 0)"/>
      <use xlink:href="#DejaVuSans-6e" transform="translate(1045.992188 0)"/>
     </g>
    </g>
    <g id="line2d_43">
     <path d="M 683.391787 275.97952 
L 691.391787 275.97952 
L 699.391787 275.97952 
" style="fill: none; stroke-dasharray: 5.55,2.4; stroke-dashoffset: 0; stroke: #111827; stroke-width: 1.5"/>
    </g>
    <g id="text_35">
     <!-- linear fit -->
     <g transform="translate(705.791787 278.77952) scale(0.08 -0.08)">
      <use xlink:href="#DejaVuSans-6c"/>
      <use xlink:href="#DejaVuSans-69" transform="translate(27.783203 0)"/>
      <use xlink:href="#DejaVuSans-6e" transform="translate(55.566406 0)"/>
      <use xlink:href="#DejaVuSans-65" transform="translate(118.945312 0)"/>
      <use xlink:href="#DejaVuSans-61" transform="translate(180.46875 0)"/>
      <use xlink:href="#DejaVuSans-72" transform="translate(241.748047 0)"/>
      <use xlink:href="#DejaVuSans-20" transform="translate(282.861328 0)"/>
      <use xlink:href="#DejaVuSans-66" transform="translate(314.648438 0)"/>
      <use xlink:href="#DejaVuSans-69" transform="translate(349.853516 0)"/>
      <use xlink:href="#DejaVuSans-74" transform="translate(377.636719 0)"/>
     </g>
    </g>
   </g>
  </g>
  <g id="text_36">
   <!-- Fiber-network biomechanics: anisotropy constrains tensile stiffness -->
   <g transform="translate(137.487262 17.077969) scale(0.13 -0.13)">
    <defs>
     <path id="DejaVuSans-Bold-2d" d="M 347 2297 
L 2309 2297 
L 2309 1388 
L 347 1388 
L 347 2297 
z
" transform="scale(0.015625)"/>
     <path id="DejaVuSans-Bold-6d" d="M 3781 2919 
Q 3994 3244 4286 3414 
Q 4578 3584 4928 3584 
Q 5531 3584 5847 3212 
Q 6163 2841 6163 2131 
L 6163 0 
L 5038 0 
L 5038 1825 
Q 5041 1866 5042 1909 
Q 5044 1953 5044 2034 
Q 5044 2406 4934 2573 
Q 4825 2741 4581 2741 
Q 4263 2741 4089 2478 
Q 3916 2216 3909 1719 
L 3909 0 
L 2784 0 
L 2784 1825 
Q 2784 2406 2684 2573 
Q 2584 2741 2328 2741 
Q 2006 2741 1831 2477 
Q 1656 2213 1656 1722 
L 1656 0 
L 531 0 
L 531 3500 
L 1656 3500 
L 1656 2988 
Q 1863 3284 2130 3434 
Q 2397 3584 2719 3584 
Q 3081 3584 3359 3409 
Q 3638 3234 3781 2919 
z
" transform="scale(0.015625)"/>
     <path id="DejaVuSans-Bold-63" d="M 3366 3391 
L 3366 2478 
Q 3138 2634 2908 2709 
Q 2678 2784 2431 2784 
Q 1963 2784 1702 2511 
Q 1441 2238 1441 1747 
Q 1441 1256 1702 982 
Q 1963 709 2431 709 
Q 2694 709 2930 787 
Q 3166 866 3366 1019 
L 3366 103 
Q 3103 6 2833 -42 
Q 2563 -91 2291 -91 
Q 1344 -91 809 395 
Q 275 881 275 1747 
Q 275 2613 809 3098 
Q 1344 3584 2291 3584 
Q 2566 3584 2833 3536 
Q 3100 3488 3366 3391 
z
" transform="scale(0.015625)"/>
     <path id="DejaVuSans-Bold-68" d="M 4056 2131 
L 4056 0 
L 2931 0 
L 2931 347 
L 2931 1625 
Q 2931 2084 2911 2256 
Q 2891 2428 2841 2509 
Q 2775 2619 2662 2680 
Q 2550 2741 2406 2741 
Q 2056 2741 1856 2470 
Q 1656 2200 1656 1722 
L 1656 0 
L 538 0 
L 538 4863 
L 1656 4863 
L 1656 2988 
Q 1909 3294 2193 3439 
Q 2478 3584 2822 3584 
Q 3428 3584 3742 3212 
Q 4056 2841 4056 2131 
z
" transform="scale(0.015625)"/>
     <path id="DejaVuSans-Bold-3a" d="M 716 3500 
L 1844 3500 
L 1844 2291 
L 716 2291 
L 716 3500 
z
M 716 1209 
L 1844 1209 
L 1844 0 
L 716 0 
L 716 1209 
z
" transform="scale(0.015625)"/>
     <path id="DejaVuSans-Bold-70" d="M 1656 506 
L 1656 -1331 
L 538 -1331 
L 538 3500 
L 1656 3500 
L 1656 2988 
Q 1888 3294 2169 3439 
Q 2450 3584 2816 3584 
Q 3463 3584 3878 3070 
Q 4294 2556 4294 1747 
Q 4294 938 3878 423 
Q 3463 -91 2816 -91 
Q 2450 -91 2169 54 
Q 1888 200 1656 506 
z
M 2400 2772 
Q 2041 2772 1848 2508 
Q 1656 2244 1656 1747 
Q 1656 1250 1848 986 
Q 2041 722 2400 722 
Q 2759 722 2948 984 
Q 3138 1247 3138 1747 
Q 3138 2247 2948 2509 
Q 2759 2772 2400 2772 
z
" transform="scale(0.015625)"/>
     <path id="DejaVuSans-Bold-79" d="M 78 3500 
L 1197 3500 
L 2138 1125 
L 2938 3500 
L 4056 3500 
L 2584 -331 
Q 2363 -916 2067 -1148 
Q 1772 -1381 1288 -1381 
L 641 -1381 
L 641 -647 
L 991 -647 
Q 1275 -647 1404 -556 
Q 1534 -466 1606 -231 
L 1638 -134 
L 78 3500 
z
" transform="scale(0.015625)"/>
    </defs>
    <use xlink:href="#DejaVuSans-Bold-46"/>
    <use xlink:href="#DejaVuSans-Bold-69" transform="translate(68.310547 0)"/>
    <use xlink:href="#DejaVuSans-Bold-62" transform="translate(102.587891 0)"/>
    <use xlink:href="#DejaVuSans-Bold-65" transform="translate(174.169922 0)"/>
    <use xlink:href="#DejaVuSans-Bold-72" transform="translate(241.992188 0)"/>
    <use xlink:href="#DejaVuSans-Bold-2d" transform="translate(291.308594 0)"/>
    <use xlink:href="#DejaVuSans-Bold-6e" transform="translate(332.8125 0)"/>
    <use xlink:href="#DejaVuSans-Bold-65" transform="translate(404.003906 0)"/>
    <use xlink:href="#DejaVuSans-Bold-74" transform="translate(471.826172 0)"/>
    <use xlink:href="#DejaVuSans-Bold-77" transform="translate(519.628906 0)"/>
    <use xlink:href="#DejaVuSans-Bold-6f" transform="translate(612.011719 0)"/>
    <use xlink:href="#DejaVuSans-Bold-72" transform="translate(680.712891 0)"/>
    <use xlink:href="#DejaVuSans-Bold-6b" transform="translate(730.029297 0)"/>
    <use xlink:href="#DejaVuSans-Bold-20" transform="translate(796.533203 0)"/>
    <use xlink:href="#DejaVuSans-Bold-62" transform="translate(831.347656 0)"/>
    <use xlink:href="#DejaVuSans-Bold-69" transform="translate(902.929688 0)"/>
    <use xlink:href="#DejaVuSans-Bold-6f" transform="translate(937.207031 0)"/>
    <use xlink:href="#DejaVuSans-Bold-6d" transform="translate(1005.908203 0)"/>
    <use xlink:href="#DejaVuSans-Bold-65" transform="translate(1110.107422 0)"/>
    <use xlink:href="#DejaVuSans-Bold-63" transform="translate(1177.929688 0)"/>
    <use xlink:href="#DejaVuSans-Bold-68" transform="translate(1237.207031 0)"/>
    <use xlink:href="#DejaVuSans-Bold-61" transform="translate(1308.398438 0)"/>
    <use xlink:href="#DejaVuSans-Bold-6e" transform="translate(1375.878906 0)"/>
    <use xlink:href="#DejaVuSans-Bold-69" transform="translate(1447.070312 0)"/>
    <use xlink:href="#DejaVuSans-Bold-63" transform="translate(1481.347656 0)"/>
    <use xlink:href="#DejaVuSans-Bold-73" transform="translate(1540.625 0)"/>
    <use xlink:href="#DejaVuSans-Bold-3a" transform="translate(1600.146484 0)"/>
    <use xlink:href="#DejaVuSans-Bold-20" transform="translate(1640.136719 0)"/>
    <use xlink:href="#DejaVuSans-Bold-61" transform="translate(1674.951172 0)"/>
    <use xlink:href="#DejaVuSans-Bold-6e" transform="translate(1742.431641 0)"/>
    <use xlink:href="#DejaVuSans-Bold-69" transform="translate(1813.623047 0)"/>
    <use xlink:href="#DejaVuSans-Bold-73" transform="translate(1847.900391 0)"/>
    <use xlink:href="#DejaVuSans-Bold-6f" transform="translate(1907.421875 0)"/>
    <use xlink:href="#DejaVuSans-Bold-74" transform="translate(1976.123047 0)"/>
    <use xlink:href="#DejaVuSans-Bold-72" transform="translate(2023.925781 0)"/>
    <use xlink:href="#DejaVuSans-Bold-6f" transform="translate(2073.242188 0)"/>
    <use xlink:href="#DejaVuSans-Bold-70" transform="translate(2141.943359 0)"/>
    <use xlink:href="#DejaVuSans-Bold-79" transform="translate(2213.525391 0)"/>
    <use xlink:href="#DejaVuSans-Bold-20" transform="translate(2278.710938 0)"/>
    <use xlink:href="#DejaVuSans-Bold-63" transform="translate(2313.525391 0)"/>
    <use xlink:href="#DejaVuSans-Bold-6f" transform="translate(2372.802734 0)"/>
    <use xlink:href="#DejaVuSans-Bold-6e" transform="translate(2441.503906 0)"/>
    <use xlink:href="#DejaVuSans-Bold-73" transform="translate(2512.695312 0)"/>
    <use xlink:href="#DejaVuSans-Bold-74" transform="translate(2572.216797 0)"/>
    <use xlink:href="#DejaVuSans-Bold-72" transform="translate(2620.019531 0)"/>
    <use xlink:href="#DejaVuSans-Bold-61" transform="translate(2669.335938 0)"/>
    <use xlink:href="#DejaVuSans-Bold-69" transform="translate(2736.816406 0)"/>
    <use xlink:href="#DejaVuSans-Bold-6e" transform="translate(2771.09375 0)"/>
    <use xlink:href="#DejaVuSans-Bold-73" transform="translate(2842.285156 0)"/>
    <use xlink:href="#DejaVuSans-Bold-20" transform="translate(2901.806641 0)"/>
    <use xlink:href="#DejaVuSans-Bold-74" transform="translate(2936.621094 0)"/>
    <use xlink:href="#DejaVuSans-Bold-65" transform="translate(2984.423828 0)"/>
    <use xlink:href="#DejaVuSans-Bold-6e" transform="translate(3052.246094 0)"/>
    <use xlink:href="#DejaVuSans-Bold-73" transform="translate(3123.4375 0)"/>
    <use xlink:href="#DejaVuSans-Bold-69" transform="translate(3182.958984 0)"/>
    <use xlink:href="#DejaVuSans-Bold-6c" transform="translate(3217.236328 0)"/>
    <use xlink:href="#DejaVuSans-Bold-65" transform="translate(3251.513672 0)"/>
    <use xlink:href="#DejaVuSans-Bold-20" transform="translate(3319.335938 0)"/>
    <use xlink:href="#DejaVuSans-Bold-73" transform="translate(3354.150391 0)"/>
    <use xlink:href="#DejaVuSans-Bold-74" transform="translate(3413.671875 0)"/>
    <use xlink:href="#DejaVuSans-Bold-69" transform="translate(3461.474609 0)"/>
    <use xlink:href="#DejaVuSans-Bold-66" transform="translate(3495.751953 0)"/>
    <use xlink:href="#DejaVuSans-Bold-66" transform="translate(3539.257812 0)"/>
    <use xlink:href="#DejaVuSans-Bold-6e" transform="translate(3582.763672 0)"/>
    <use xlink:href="#DejaVuSans-Bold-65" transform="translate(3653.955078 0)"/>
    <use xlink:href="#DejaVuSans-Bold-73" transform="translate(3721.777344 0)"/>
    <use xlink:href="#DejaVuSans-Bold-73" transform="translate(3781.298828 0)"/>
   </g>
  </g>
 </g>
 <defs>
  <clipPath id="p939c3c033c">
   <path d="M 261.806071 173.362109 
C 261.806071 158.354845 258.849967 143.493507 253.106936 129.628603 
C 247.363904 115.763698 238.945633 103.164864 228.333894 92.553126 
C 217.722156 81.941387 205.123322 73.523116 191.258417 67.780084 
C 177.393513 62.037053 162.532175 59.080949 147.524911 59.080949 
C 132.517646 59.080949 117.656308 62.037053 103.791404 67.780084 
C 89.926499 73.523116 77.327665 81.941387 66.715927 92.553126 
C 56.104188 103.164864 47.685917 115.763698 41.942885 129.628603 
C 36.199854 143.493507 33.24375 158.354845 33.24375 173.362109 
C 33.24375 188.369374 36.199854 203.230712 41.942885 217.095616 
C 47.685917 230.960521 56.104188 243.559355 66.715927 254.171093 
C 77.327665 264.782832 89.926499 273.201103 103.791404 278.944135 
C 117.656308 284.687166 132.517646 287.64327 147.524911 287.64327 
C 162.532175 287.64327 177.393513 284.687166 191.258417 278.944135 
C 205.123322 273.201103 217.722156 264.782832 228.333894 254.171093 
C 238.945633 243.559355 247.363904 230.960521 253.106936 217.095616 
C 258.849967 203.230712 261.806071 188.369374 261.806071 173.362109 
M 147.524911 173.362109 
C 147.524911 173.362109 147.524911 173.362109 147.524911 173.362109 
C 147.524911 173.362109 147.524911 173.362109 147.524911 173.362109 
C 147.524911 173.362109 147.524911 173.362109 147.524911 173.362109 
C 147.524911 173.362109 147.524911 173.362109 147.524911 173.362109 
C 147.524911 173.362109 147.524911 173.362109 147.524911 173.362109 
C 147.524911 173.362109 147.524911 173.362109 147.524911 173.362109 
C 147.524911 173.362109 147.524911 173.362109 147.524911 173.362109 
C 147.524911 173.362109 147.524911 173.362109 147.524911 173.362109 
C 147.524911 173.362109 147.524911 173.362109 147.524911 173.362109 
C 147.524911 173.362109 147.524911 173.362109 147.524911 173.362109 
C 147.524911 173.362109 147.524911 173.362109 147.524911 173.362109 
C 147.524911 173.362109 147.524911 173.362109 147.524911 173.362109 
C 147.524911 173.362109 147.524911 173.362109 147.524911 173.362109 
C 147.524911 173.362109 147.524911 173.362109 147.524911 173.362109 
C 147.524911 173.362109 147.524911 173.362109 147.524911 173.362109 
C 147.524911 173.362109 147.524911 173.362109 147.524911 173.362109 
z
"/>
  </clipPath>
  <clipPath id="p516411da38">
   <rect x="364.267679" y="59.080949" width="437.469108" height="228.562321"/>
  </clipPath>
 </defs>
</svg>
